<svg width="78" height="65" viewBox="0 0 78 65" fill="none" xmlns="http://www.w3.org/2000/svg">
<path d="M64.3427 0C58.427 0 53.7528 4.74718 53.7528 10.6629C53.7528 16.5786 58.5 21.2528 64.3427 21.2528C70.1854 21.2528 75.0056 16.5056 75.0056 10.5899C75.0056 4.67415 70.2584 0 64.3427 0ZM64.3427 18.9157C59.7416 18.9157 56.0168 15.191 56.0168 10.5899C56.0168 5.98875 59.8146 2.33707 64.3427 2.33707C68.9438 2.33707 72.6685 6.06179 72.6685 10.6629C72.6685 15.264 68.9438 18.9157 64.3427 18.9157Z" fill="#3B38EB"/>
<path d="M67.702 12.2698C67.629 12.0507 67.629 11.9046 67.4829 11.6855C67.4099 11.5394 67.3369 11.3203 67.1908 11.1743C67.0447 11.0282 66.9717 10.8821 66.8256 10.7361C66.6796 10.59 66.5335 10.4439 66.3144 10.3709C66.1683 10.2248 65.9492 10.1518 65.8032 10.0788C65.5841 10.0057 65.438 9.85968 65.2189 9.78664C64.9998 9.71361 64.7807 9.64057 64.6346 9.56754C64.5616 9.56754 64.4155 9.49451 64.3425 9.42147C64.2695 9.34844 64.1234 9.34844 64.0504 9.27541C63.9773 9.20237 63.8313 9.20237 63.7582 9.12934C63.6852 9.0563 63.6122 8.98327 63.5391 8.91024C63.4661 8.8372 63.3931 8.76417 63.3931 8.6181C63.32 8.54507 63.32 8.399 63.32 8.32597C63.32 8.1799 63.32 8.10687 63.32 7.9608C63.32 7.88777 63.3931 7.7417 63.3931 7.66867C63.4661 7.59563 63.4661 7.44957 63.5391 7.37653C63.6122 7.3035 63.6852 7.23047 63.7582 7.15743C63.8313 7.0844 63.9773 7.01136 64.1234 7.01136C64.2695 6.93833 64.3425 6.93833 64.4886 6.93833C64.5616 6.93833 64.6346 6.93833 64.7077 6.93833C64.7807 6.93833 64.8537 6.93833 64.9268 6.93833C65.0728 6.93833 65.1459 6.93833 65.2919 7.01136C65.438 7.01136 65.5841 7.0844 65.6571 7.0844C65.7301 7.0844 65.8762 7.15743 65.9492 7.15743C66.0953 7.15743 66.1683 7.23047 66.2414 7.23047L66.6065 7.37653L66.6796 6.93833L66.8256 5.76979V5.47766L66.5335 5.40463C66.4605 5.40463 66.3144 5.33159 66.2414 5.33159C66.1683 5.33159 66.0953 5.25856 65.9492 5.25856C65.8762 5.25856 65.7301 5.18553 65.5841 5.18553C65.438 5.18553 65.365 5.11249 65.2189 5.11249H65.1459V4.09002V3.72485H64.7807H63.7582H63.3931V4.09002V5.18553H63.32C63.1009 5.25856 62.8818 5.33159 62.6627 5.47766C62.4436 5.55069 62.2975 5.69676 62.1515 5.84283C62.0054 5.98889 61.8593 6.13496 61.7133 6.35406C61.5672 6.50013 61.4942 6.71923 61.4211 6.93833C61.3481 7.15743 61.2751 7.37653 61.202 7.59563C61.129 7.81473 61.129 8.10687 61.129 8.32597C61.129 8.54507 61.129 8.69114 61.202 8.91024C61.2751 9.12934 61.2751 9.27541 61.4211 9.49451C61.4942 9.64057 61.6402 9.85967 61.7133 10.0057C61.8593 10.1518 61.9324 10.2979 62.0784 10.4439C62.2245 10.59 62.3706 10.7361 62.5897 10.8091C62.7357 10.9552 62.9549 11.0282 63.1009 11.1012C63.32 11.1743 63.5391 11.3203 63.6852 11.3934C63.9043 11.4664 64.1234 11.5394 64.2695 11.6125C64.3425 11.6125 64.4886 11.6855 64.5616 11.7585C64.6346 11.8316 64.7807 11.8316 64.8537 11.9046C64.9268 11.9776 64.9998 12.0507 65.0728 12.0507C65.1459 12.1237 65.2189 12.1967 65.2919 12.2698C65.365 12.3428 65.365 12.4159 65.438 12.5619C65.438 12.635 65.511 12.781 65.511 12.9271C65.511 13.0732 65.511 13.1462 65.511 13.2923C65.511 13.3653 65.438 13.5114 65.365 13.5844C65.2919 13.6574 65.2189 13.7305 65.1459 13.8035C65.0728 13.8765 64.9998 13.9496 64.8537 14.0226C64.7807 14.0956 64.6346 14.0956 64.5616 14.1687C64.4886 14.1687 64.3425 14.2417 64.1964 14.2417C64.1234 14.2417 64.0504 14.2417 63.9043 14.2417C63.8313 14.2417 63.6852 14.2417 63.6122 14.2417C63.4661 14.2417 63.32 14.2417 63.247 14.2417C63.1009 14.2417 62.9549 14.1687 62.8818 14.1687C62.7357 14.1687 62.5897 14.0956 62.4436 14.0226C62.2975 13.9496 62.1515 13.9496 62.0054 13.8765C61.9324 13.8765 61.8593 13.8035 61.7863 13.8035C61.7133 13.8035 61.6402 13.7305 61.5672 13.7305L61.129 13.5114L61.056 14.0226L60.9099 15.3372V15.5563L61.129 15.6293C61.4211 15.5563 61.5672 15.6293 61.7863 15.7024C61.9324 15.7754 62.1515 15.8484 62.2976 15.8484C62.4436 15.9215 62.6627 15.9215 62.8818 15.9945C63.1009 16.0675 63.247 16.0675 63.4661 16.0675H63.6122V17.163V17.5282H63.9773H64.9998H65.365V17.163V15.9945H65.438C65.6571 15.9215 65.8762 15.8484 66.0953 15.7024C66.3144 15.6293 66.4605 15.4833 66.6796 15.3372C66.8256 15.1911 66.9717 15.0451 67.1178 14.826C67.2638 14.6799 67.3369 14.4608 67.4829 14.2417C67.556 14.0226 67.629 13.8035 67.702 13.5844C67.7751 13.3653 67.7751 13.1462 67.7751 12.8541C67.7751 12.635 67.7751 12.4889 67.702 12.2698Z" fill="#3B38EB"/>
<path d="M59.2303 22.6404C58.8651 22.1292 58.0618 22.0562 57.5505 22.4213L45.7191 31.8427L30.4551 25.4888C30.0899 25.3427 29.6517 25.4157 29.3596 25.6348L13 37.3202C12.4888 37.6854 12.3427 38.4157 12.7079 38.9269C12.927 39.2921 13.2922 39.4382 13.6574 39.4382C13.8765 39.4382 14.0956 39.3651 14.3147 39.2191L30.1629 27.8989L45.5 34.2528C45.8652 34.3989 46.3764 34.3258 46.6685 34.1067L59.0112 24.3202C59.5224 23.955 59.5955 23.1517 59.2303 22.6404Z" fill="#3B38EB"/>
<path d="M76.3201 62.663H70.9156V28.8485C70.9156 28.1912 70.4044 27.6799 69.7471 27.6799H59.0111C58.3538 27.6799 57.8426 28.1912 57.8426 28.8485V62.663H53.8988V40.5338C53.8988 39.8765 53.3875 39.3653 52.7302 39.3653H41.9213C41.264 39.3653 40.7527 39.8765 40.7527 40.5338V62.663H36.8089V38.781C36.8089 38.1237 36.2977 37.6125 35.6404 37.6125H24.9044C24.2471 37.6125 23.7359 38.1237 23.7359 38.781V62.663H19.7921V45.6462C19.7921 44.9889 19.2809 44.4777 18.6236 44.4777H7.81459C7.15729 44.4777 6.64606 44.9889 6.64606 45.6462V62.663H1.16854C0.511235 62.663 0 63.1743 0 63.8316C0 64.4889 0.511235 65.0001 1.16854 65.0001H7.74156H18.4775H24.9044H35.6404H41.9213H52.6572H58.9381H69.674H76.2471C76.9044 65.0001 77.4156 64.4889 77.4156 63.8316C77.4886 63.1743 76.9774 62.663 76.3201 62.663ZM17.382 62.663H8.98313V46.8147H17.382V62.663ZM34.4718 62.663H26.073V39.9496H34.4718V62.663ZM51.4887 62.663H43.0898V41.7024H51.4887V62.663ZM68.5785 62.663H60.1797V30.017H68.5785V62.663Z" fill="#3B38EB"/>
</svg>
