<svg width="45" height="65" viewBox="0 0 45 65" fill="none" xmlns="http://www.w3.org/2000/svg">
<path d="M44.2556 41.8222C42.1986 38.4386 41.1552 34.8829 41.1552 31.2544C41.1552 30.7297 40.7302 30.3047 40.2055 30.3047H40.0022L44.1322 21.8692C44.5041 21.1095 44.5576 20.2506 44.2829 19.4512C44.0082 18.6518 43.4384 18.0071 42.6781 17.6361L38.447 15.5721C36.8794 14.8074 34.9796 15.4596 34.2124 17.0267L27.712 30.3047H25.2801C25.2741 30.3047 25.2677 30.3052 25.2617 30.3052C25.2553 30.3052 25.2493 30.3047 25.2434 30.3047H24.8972V24.5119C24.8972 23.2865 22.9974 23.2865 22.9974 24.5119V30.3047H21.351V24.5119C21.351 23.2865 19.4511 23.2865 19.4511 24.5119V30.3047H15.468L12.7286 22.2541C12.6735 22.0924 12.5718 21.9431 12.4404 21.833L5.16838 15.7224C4.91249 15.5077 4.56238 15.4427 4.24698 15.5518C3.93108 15.6609 3.69602 15.9282 3.62758 16.255L1.65237 25.7091C1.61815 25.8737 1.62856 26.0508 1.68262 26.2094L3.07613 30.3047H2.19291C1.76147 30.3047 1.38408 30.5953 1.27399 31.0124C1.23927 31.1443 0.422507 34.2913 0.410109 38.4743C0.393744 44.0732 1.85767 48.8463 4.64271 52.2775C5.42278 53.2381 6.88622 52.0266 6.11756 51.0804C0.889655 44.6395 2.40367 34.8934 2.95314 32.204H24.256C23.9828 35.6481 22.2664 37.6635 21.3138 38.5304C20.1226 37.36 18.5902 36.8269 17.4541 36.8269C14.5213 36.8269 12.1349 39.2132 12.1349 42.1466C12.1349 44.6207 13.8325 46.7055 16.1246 47.2976C13.9212 51.6844 10.1444 53.7028 9.20609 54.1501C8.69679 54.1675 8.28866 54.5845 8.28866 55.0983V64.05C8.28866 64.5747 8.71415 65.0001 9.23833 65.0001H24.1846C24.7093 65.0001 25.1348 64.5747 25.1348 64.05V59.8387H27.5712C35.2127 59.8387 41.477 53.8292 41.8867 46.2879C42.9097 46.2492 43.8128 45.6933 44.3142 44.7893C44.8354 43.849 44.8135 42.7397 44.2556 41.8222ZM35.9184 17.8623C36.2258 17.2344 36.9866 16.9736 37.6144 17.2796L41.8455 19.3436C42.4654 19.6466 42.7292 20.4142 42.4257 21.0336L41.6804 22.5556L40.0121 21.7418C38.9107 21.2047 38.0776 22.9121 39.179 23.4492L40.8452 24.262L39.3917 27.231L36.6831 25.9099C35.5821 25.3723 34.749 27.0803 35.8504 27.6168L38.5566 28.9375L37.8871 30.3047H29.8271L35.9184 17.8623ZM10.2078 30.3047L8.9626 26.5467L11.4045 24.26L13.461 30.3047H10.2078ZM4.76768 20.0869L6.65909 19.4571L10.3988 22.5992L7.53933 25.2766L3.7352 25.0272L4.76768 20.0869ZM3.93951 26.9444L7.16343 27.1561L8.20633 30.3047H5.08259L3.93951 26.9444ZM42.6524 43.8684C42.5666 44.0231 42.3102 44.3841 41.786 44.3906H40.9583C40.3563 44.3906 39.9729 44.9405 40.0082 45.5019C40.0082 52.3599 34.4286 57.9389 27.5712 57.9389H24.1846C23.6599 57.9389 23.2349 58.3644 23.2349 58.889V63.1003H10.1885V55.7881C11.6752 55.0596 16.1588 52.4709 18.3993 46.8686C18.5947 46.3816 18.3576 45.8292 17.8702 45.6343C17.7417 45.5827 17.6088 45.5624 17.4789 45.5674C17.4705 45.5674 17.4625 45.5664 17.4541 45.5664C15.5686 45.5664 14.0348 44.032 14.0348 42.1466C14.0348 40.2611 15.5686 38.7268 17.4541 38.7268C18.3259 38.7268 19.6257 39.3 20.4221 40.3955C20.7172 40.8007 21.2756 40.9078 21.6986 40.6395C21.8727 40.5294 25.7651 37.9933 26.1583 32.2045H39.2772C39.4433 35.8544 40.57 39.4171 42.6325 42.8091C42.8314 43.1364 42.8388 43.5321 42.6524 43.8684Z" fill="#3B38EB"/>
<path d="M32.6245 35.1404C30.7043 35.1404 29.1422 36.703 29.1422 38.6232C29.1422 39.8486 31.042 39.8486 31.042 38.6232C31.042 37.7504 31.7517 37.0402 32.6245 37.0402C33.4978 37.0402 34.2075 37.7504 34.2075 38.6232C34.2075 39.8486 36.1073 39.8486 36.1073 38.6232C36.1073 36.703 34.5452 35.1404 32.6245 35.1404Z" fill="#3B38EB"/>
<path d="M6.1002 8.52569H7.08508V9.51057C7.08508 10.736 8.98492 10.736 8.98492 9.51057V8.52569H9.9698C11.1952 8.52569 11.1952 6.62585 9.9698 6.62585H8.98492V5.64097C8.98492 4.41557 7.08508 4.41557 7.08508 5.64097V6.62585H6.1002C4.8748 6.62585 4.8748 8.52569 6.1002 8.52569Z" fill="#3B38EB"/>
<path d="M30.8457 3.83991H31.8306V4.82429C31.8306 6.04969 33.7304 6.04969 33.7304 4.82429V3.83991H34.7158C35.9407 3.83991 35.9407 1.94007 34.7158 1.94007H33.7304V0.954693C33.7304 -0.270705 31.8306 -0.270705 31.8306 0.954693V1.93957H30.8457C29.6208 1.94007 29.6208 3.83991 30.8457 3.83991Z" fill="#3B38EB"/>
<path d="M37.4319 10.9323H38.4167V11.9167C38.4167 13.1421 40.3166 13.1421 40.3166 11.9167V10.9323H41.3015C42.5269 10.9323 42.5269 9.03247 41.3015 9.03247H40.3166V8.04709C40.3166 6.82219 38.4167 6.82219 38.4167 8.04709V9.03247H37.4319C36.2065 9.03247 36.2065 10.9323 37.4319 10.9323Z" fill="#3B38EB"/>
<path d="M15.2156 23.6461C15.5746 23.775 16.0319 23.6476 16.2729 23.3505C16.3125 23.3019 17.2161 22.1871 18.1732 20.8992C19.2255 21.8891 20.6111 22.4435 22.0919 22.4435H22.1068C23.5915 22.44 24.987 21.8782 26.0517 20.8804C26.9925 22.1603 27.8802 23.2662 27.9189 23.3148C28.4604 23.9883 29.6045 23.5975 29.6094 22.7247L29.6416 16.7995C29.6461 16.0319 29.3486 15.3083 28.8041 14.7618C28.5412 14.4985 28.2357 14.2932 27.9035 14.1484L27.9258 10.1077C27.9456 6.47564 26.1336 2.96509 22.8229 0.223192C21.8791 -0.55886 20.6676 0.904575 21.6109 1.68613C23.8301 3.52448 25.2707 5.73227 25.7993 8.05363L18.557 8.07099C18.8114 7.0028 19.2592 5.95742 19.899 4.94526C20.5536 3.9093 18.9478 2.89467 18.2927 3.93013C17.0534 5.89047 16.4192 7.9733 16.4078 10.1211L16.3854 14.1712C15.352 14.6225 14.6245 15.6411 14.618 16.8218L14.5858 22.747C14.5833 23.1497 14.8357 23.5107 15.2156 23.6461ZM16.5178 16.8323C16.5208 16.2773 16.9934 15.8251 17.5707 15.8236H17.5736C17.8568 15.8236 18.1196 15.9307 18.314 16.1261C18.4866 16.2992 18.5858 16.5238 18.5967 16.7628C18.4663 17.2072 17.5791 18.5203 16.5005 19.9649L16.5178 16.8323ZM27.7249 19.9496C26.6632 18.5119 25.7909 17.2037 25.6639 16.7599C25.6937 16.2282 26.1549 15.8023 26.7153 15.8008H26.7178C27.0009 15.8008 27.2642 15.9084 27.4586 16.1038C27.6426 16.2882 27.7433 16.5322 27.7423 16.7896L27.7249 19.9496ZM26.0245 9.95298C26.025 10.0011 26.026 10.0492 26.026 10.0978L26.0046 13.9882C24.7257 14.3036 23.7701 15.4452 23.7626 16.7995C23.7606 17.1635 23.8673 17.6956 24.9409 19.3059C24.2055 20.0929 23.1888 20.5412 22.1018 20.5437C22.0983 20.5437 22.0954 20.5437 22.0919 20.5437C21.0143 20.5437 20.0125 20.1053 19.292 19.3317C20.383 17.717 20.4951 17.1854 20.4975 16.8223C20.5015 16.0542 20.204 15.3306 19.6594 14.7846C19.2766 14.4003 18.803 14.139 18.2863 14.0125L18.3076 10.1315C18.3076 10.0779 18.3101 10.0249 18.3111 9.97182L26.0245 9.95298Z" fill="#3B38EB"/>
<path d="M17.2007 41.1458C15.9783 41.1458 15.9763 43.0456 17.2007 43.0456C18.4231 43.0456 18.4251 41.1458 17.2007 41.1458Z" fill="#3B38EB"/>
</svg>
