<svg width="65" height="65" viewBox="0 0 65 65" fill="none" xmlns="http://www.w3.org/2000/svg">
<path d="M58.7097 35.1524V14.5935C62.2606 14.0819 65 11.028 65 7.33871C65 3.29298 61.7081 0 57.6613 0C53.6145 0 50.3226 3.29298 50.3226 7.33871H0V49.2742H31.5051C32.0502 58.0345 39.3313 65 48.2258 65C57.4747 65 65 57.4747 65 48.2258C65 42.943 62.5394 38.2294 58.7097 35.1524ZM57.6613 2.09677C60.5517 2.09677 62.9032 4.44831 62.9032 7.33871C62.9032 10.2291 60.5517 12.5806 57.6613 12.5806C54.7709 12.5806 52.4194 10.2291 52.4194 7.33871C52.4194 4.44831 54.7709 2.09677 57.6613 2.09677ZM2.09677 9.43548H50.6319C50.8824 10.2721 51.2808 11.0427 51.7924 11.7262L45.3805 18.1381C44.9695 17.941 44.5166 17.8226 44.0323 17.8226C43.5479 17.8226 43.095 17.941 42.6851 18.1381L40.5726 16.0256C40.7686 15.6147 40.8871 15.1618 40.8871 14.6774C40.8871 12.9434 39.476 11.5323 37.7419 11.5323C36.0079 11.5323 34.5968 12.9434 34.5968 14.6774C34.5968 15.1618 34.7152 15.6147 34.9123 16.0246L29.6547 21.2823C29.2437 21.0862 28.7908 20.9677 28.3064 20.9677C26.5724 20.9677 25.1613 22.3789 25.1613 24.1129C25.1613 25.8469 26.5724 27.2581 28.3064 27.2581C30.0405 27.2581 31.4516 25.8469 31.4516 24.1129C31.4516 23.6285 31.3331 23.1756 31.136 22.7657L36.3937 17.5081C36.8047 17.7041 37.2576 17.8226 37.7419 17.8226C38.2263 17.8226 38.6792 17.7041 39.0891 17.507L41.2016 19.6195C41.0056 20.0305 40.8871 20.4834 40.8871 20.9677C40.8871 22.7018 42.2982 24.1129 44.0323 24.1129C45.7663 24.1129 47.1774 22.7018 47.1774 20.9677C47.1774 20.4834 47.059 20.0305 46.8619 19.6206L53.2748 13.2086C54.2341 13.9278 55.3727 14.4153 56.6129 14.5946V33.7224C54.1419 32.2872 51.2829 31.4516 48.2258 31.4516C43.2145 31.4516 38.7211 33.6721 35.6452 37.1685V32.5H29.3548V45.0806H31.7577C31.6277 45.7652 31.5491 46.4666 31.5051 47.1774H2.09677V9.43548ZM44.0323 19.9194C44.6099 19.9194 45.0806 20.389 45.0806 20.9677C45.0806 21.5465 44.6099 22.0161 44.0323 22.0161C43.4546 22.0161 42.9839 21.5465 42.9839 20.9677C42.9839 20.389 43.4546 19.9194 44.0323 19.9194ZM36.6935 14.6774C36.6935 14.0987 37.1643 13.629 37.7419 13.629C38.3196 13.629 38.7903 14.0987 38.7903 14.6774C38.7903 15.2561 38.3196 15.7258 37.7419 15.7258C37.1643 15.7258 36.6935 15.2561 36.6935 14.6774ZM29.3548 24.1129C29.3548 24.6916 28.8841 25.1613 28.3064 25.1613C27.7288 25.1613 27.2581 24.6916 27.2581 24.1129C27.2581 23.5342 27.7288 23.0645 28.3064 23.0645C28.8841 23.0645 29.3548 23.5342 29.3548 24.1129ZM48.2258 56.6129C43.6014 56.6129 39.8387 52.8502 39.8387 48.2258C39.8387 43.6014 43.6014 39.8387 48.2258 39.8387C52.8502 39.8387 56.6129 43.6014 56.6129 48.2258C56.6129 52.8502 52.8502 56.6129 48.2258 56.6129ZM33.5484 40.1228C33.0462 41.0286 32.631 41.9858 32.3019 42.9839H31.4516V34.5968H33.5484V40.1228ZM47.1774 33.6019V37.7954C41.8873 38.3238 37.7419 42.7994 37.7419 48.2258C37.7419 49.7596 38.0816 51.2137 38.676 52.5284L35.0392 54.6283C34.0935 52.6909 33.5484 50.5228 33.5484 48.2258C33.5484 40.4866 39.5735 34.1428 47.1774 33.6019ZM48.2258 62.9032C43.1789 62.9032 38.719 60.342 36.0771 56.4504L39.7286 54.3421C41.6346 56.9819 44.7284 58.7097 48.2258 58.7097C51.7232 58.7097 54.817 56.9819 56.723 54.3421L60.3745 56.4504C57.7326 60.342 53.2727 62.9032 48.2258 62.9032ZM61.4124 54.6283L57.7756 52.5284C58.37 51.2137 58.7097 49.7596 58.7097 48.2258C58.7097 42.7994 54.5644 38.3227 49.2742 37.7954V33.6019C56.8781 34.1428 62.9032 40.4866 62.9032 48.2258C62.9032 50.5228 62.3581 52.6909 61.4124 54.6283Z" fill="#3B38EB"/>
<path d="M48.2257 41.9355C44.7566 41.9355 41.9354 44.7568 41.9354 48.2259C41.9354 51.695 44.7566 54.5162 48.2257 54.5162C51.6949 54.5162 54.5161 51.695 54.5161 48.2259C54.5161 44.7568 51.6949 41.9355 48.2257 41.9355ZM48.2257 52.4194C45.913 52.4194 44.0322 50.5386 44.0322 48.2259C44.0322 45.9131 45.913 44.0323 48.2257 44.0323C50.5385 44.0323 52.4193 45.9131 52.4193 48.2259C52.4193 50.5386 50.5385 52.4194 48.2257 52.4194Z" fill="#3B38EB"/>
<path d="M4.1936 11.5322H6.29038V13.629H4.1936V11.5322Z" fill="#3B38EB"/>
<path d="M8.38708 11.5322H23.0645V13.629H8.38708V11.5322Z" fill="#3B38EB"/>
<path d="M4.1936 15.7258H6.29038V17.8226H4.1936V15.7258Z" fill="#3B38EB"/>
<path d="M8.38708 15.7258H23.0645V17.8226H8.38708V15.7258Z" fill="#3B38EB"/>
<path d="M4.1936 19.9194H6.29038V22.0162H4.1936V19.9194Z" fill="#3B38EB"/>
<path d="M8.38708 19.9194H23.0645V22.0162H8.38708V19.9194Z" fill="#3B38EB"/>
<path d="M4.1936 24.1128H6.29038V26.2096H4.1936V24.1128Z" fill="#3B38EB"/>
<path d="M8.38708 24.1128H23.0645V26.2096H8.38708V24.1128Z" fill="#3B38EB"/>
<path d="M4.1936 45.0806H10.4839V34.5967H4.1936V45.0806ZM6.29038 36.6935H8.38715V42.9838H6.29038V36.6935Z" fill="#3B38EB"/>
<path d="M12.5807 45.0807H18.871V36.6936H12.5807V45.0807ZM14.6775 38.7904H16.7742V42.9839H14.6775V38.7904Z" fill="#3B38EB"/>
<path d="M20.9678 45.0806H27.2581V28.3064H20.9678V45.0806ZM23.0645 30.4032H25.1613V42.9838H23.0645V30.4032Z" fill="#3B38EB"/>
</svg>
