<svg width="93" height="90" viewBox="0 0 93 90" fill="none" xmlns="http://www.w3.org/2000/svg">
<circle opacity="0.1" cx="27.5" cy="24.5" r="24.5" fill="#3B38EB"/>
<path d="M50.1369 89.9994C49.3873 89.9994 48.7797 89.3889 48.7797 88.6357V85.0096C48.7797 84.4903 48.3591 84.0677 47.8423 84.0677H44.1987C43.6818 84.0677 43.2613 84.4903 43.2613 85.0096V88.6357C43.2613 89.3889 42.6536 89.9994 41.9041 89.9994C41.1545 89.9994 40.5469 89.3889 40.5469 88.6357V85.0096C40.5469 82.9864 42.1851 81.3403 44.1987 81.3403H47.8423C49.8558 81.3403 51.4941 82.9864 51.4941 85.0096V88.6357C51.4941 89.3889 50.8866 89.9994 50.1369 89.9994Z" fill="#3B38EB"/>
<path d="M59.0702 40.1503C58.6243 39.545 57.7743 39.4179 57.1717 39.8658C56.5693 40.314 56.4426 41.168 56.8885 41.7733L63.628 50.9193C64.3777 51.9366 64.3234 53.4689 63.5046 54.4078L56.2436 62.7338H35.7987L28.5377 54.4078C27.7188 53.4689 27.6646 51.9366 28.4143 50.9193L41.7946 32.7611V43.1077C40.0985 44.4176 39.107 46.4209 39.107 48.6076C39.107 52.4383 42.2087 55.5548 46.0211 55.5548C49.8336 55.5548 52.9353 52.4383 52.9353 48.6076C52.9353 46.5193 52.0104 44.5692 50.4286 43.2555V33.0068L53.4088 37.0511C53.8549 37.6566 54.7049 37.7837 55.3073 37.3357C55.9097 36.8875 56.0364 36.0334 55.5905 35.4281L49.769 27.5278C48.8526 26.2841 47.4866 25.5708 46.0213 25.5708C44.5561 25.5708 43.19 26.2841 42.2736 27.5278L26.2328 49.2965C24.7285 51.3381 24.8418 54.3082 26.4965 56.2055L32.5519 63.1489C31.0398 63.8573 29.9888 65.3983 29.9888 67.1822V73.6881C29.9888 75.6798 31.2984 77.3699 33.0979 77.935L33.4681 88.6834C33.4935 89.4202 34.0957 90.0001 34.8237 90.0001C34.8396 90.0001 34.8555 89.9999 34.8715 89.9993C35.6206 89.9731 36.2068 89.342 36.1809 88.5893L35.8208 78.1365H56.4028L56.0427 88.5893C56.0168 89.342 56.6031 89.9731 57.3521 89.9993C57.3681 89.9999 57.384 90.0001 57.3999 90.0001C58.1277 90.0001 58.7302 89.4202 58.7555 88.6834L59.1279 77.8726C60.8324 77.2535 62.0538 75.6116 62.0538 73.6881V67.1822C62.0538 65.3983 61.0028 63.8573 59.4907 63.1489L65.5462 56.2055C67.2009 54.3084 67.3142 51.3381 65.8099 49.2965L59.0702 40.1503ZM46.0211 28.298C46.6259 28.298 47.1822 28.6007 47.5872 29.1504L47.7142 29.3228V43.9408C47.7142 44.3996 47.9438 44.8278 48.3253 45.08C49.5122 45.8647 50.2209 47.1835 50.2209 48.6072C50.2209 50.934 48.3369 52.827 46.0211 52.827C43.7054 52.827 41.8214 50.934 41.8214 48.6072C41.8214 47.1161 42.5811 45.7647 43.8536 44.9922C44.2604 44.7452 44.509 44.3025 44.509 43.825V29.0844C44.909 28.5782 45.4421 28.298 46.0211 28.298ZM59.3394 73.6877C59.3394 74.6365 58.5711 75.4085 57.6268 75.4085H34.4156C33.4712 75.4085 32.703 74.6365 32.703 73.6877V67.1818C32.703 66.2331 33.4714 65.461 34.4156 65.461H57.6268C58.5713 65.461 59.3394 66.2331 59.3394 67.1818V73.6877Z" fill="#3B38EB"/>
<path d="M19.0121 40.5684C19.1904 36.2478 20.3863 32.0176 22.503 28.2691C22.8729 27.614 22.6444 26.7818 21.9924 26.4101C21.3404 26.0383 20.5121 26.2681 20.1422 26.9232C17.7963 31.0774 16.4773 35.7678 16.2956 40.5551C13.9534 41.1535 12.2158 43.2897 12.2158 45.8268C12.2158 48.8258 14.6441 51.2657 17.6289 51.2657C20.6136 51.2657 23.0419 48.8258 23.0419 45.8268C23.0419 43.3079 21.329 41.1842 19.0121 40.5684ZM17.6289 48.5383C16.1408 48.5383 14.9302 47.3219 14.9302 45.8268C14.9302 44.3316 16.1408 43.1152 17.6289 43.1152C19.1169 43.1152 20.3275 44.3316 20.3275 45.8268C20.3275 47.3219 19.1169 48.5383 17.6289 48.5383Z" fill="#3B38EB"/>
<path d="M89.3494 8H84.9879C83.4034 8 82.1142 9.29533 82.1142 10.8874V11.7149H51.1659V10.8874C51.1659 9.29533 49.8768 8 48.2923 8H43.9308C42.3463 8 41.0571 9.29533 41.0571 10.8874V11.7149H10.1088V10.8874C10.1088 9.29533 8.81963 8 7.23514 8H2.87365C1.28916 8 0 9.29533 0 10.8874V15.2698C0 16.8618 1.28916 18.1572 2.87365 18.1572H7.23514C8.81963 18.1572 10.1088 16.8618 10.1088 15.2698V14.4423H33.6693C29.9013 16.1813 26.5 18.7074 23.7069 21.8955C23.2116 22.4608 23.266 23.3225 23.8288 23.8201C24.0867 24.0481 24.4064 24.1603 24.7251 24.1603C25.1015 24.1603 25.4761 24.0039 25.7443 23.6978C29.7576 19.117 35.1491 16.0376 41.0571 14.9174V15.2699C41.0571 16.862 42.3463 18.1573 43.9308 18.1573H48.2923C49.8768 18.1573 51.1659 16.862 51.1659 15.2699V14.9172C63.4869 17.2498 72.6924 27.9258 73.2125 40.5685C70.8949 41.1838 69.181 43.3079 69.181 45.8272C69.181 48.8263 71.6093 51.2662 74.5941 51.2662C77.5788 51.2662 80.0071 48.8263 80.0071 45.8272C80.0071 43.2906 78.2698 41.1543 75.9278 40.5557C75.494 29.0845 68.56 19.0705 58.5545 14.4426H82.1142V15.2701C82.1142 16.8622 83.4034 18.1575 84.9879 18.1575H89.3494C90.9339 18.1575 92.223 16.8622 92.223 15.2701V10.8874C92.223 9.29533 90.9339 8 89.3494 8ZM7.39439 15.2698C7.39439 15.3579 7.32291 15.4298 7.23514 15.4298H2.87365C2.78588 15.4298 2.7144 15.3579 2.7144 15.2698V10.8874C2.7144 10.7992 2.78588 10.7274 2.87365 10.7274H7.23514C7.32291 10.7274 7.39439 10.7992 7.39439 10.8874V15.2698ZM77.2927 45.8269C77.2927 47.322 76.0821 48.5384 74.5941 48.5384C73.1061 48.5384 71.8954 47.322 71.8954 45.8269C71.8954 44.3317 73.1061 43.1153 74.5941 43.1153C76.0821 43.1153 77.2927 44.3317 77.2927 45.8269ZM48.4515 15.2698C48.4515 15.3579 48.38 15.4298 48.2923 15.4298H43.9308C43.843 15.4298 43.7715 15.3579 43.7715 15.2698V10.8874C43.7715 10.7992 43.843 10.7274 43.9308 10.7274H48.2923C48.38 10.7274 48.4515 10.7992 48.4515 10.8874V15.2698ZM89.5086 15.2698C89.5086 15.3579 89.4372 15.4298 89.3494 15.4298H84.9879C84.9001 15.4298 84.8286 15.3579 84.8286 15.2698V10.8874C84.8286 10.7992 84.9001 10.7274 84.9879 10.7274H89.3494C89.4372 10.7274 89.5086 10.7992 89.5086 10.8874V15.2698Z" fill="#3B38EB"/>
</svg>
