<svg width="41" height="26" viewBox="0 0 41 26" fill="none" xmlns="http://www.w3.org/2000/svg">
<path d="M39.8438 12.6094C40.0781 12.8438 40.0781 13.2344 39.8438 13.4688L27.9688 25.3438C27.8906 25.5 27.7344 25.5 27.5 25.5C27.3438 25.5 27.1875 25.4219 27.1094 25.2656C26.875 25.0312 26.875 24.6406 27.1094 24.4062L37.8906 13.625H0.625C0.3125 13.625 0 13.3906 0 13C0 12.6875 0.3125 12.375 0.625 12.375H37.8906L27.1094 1.59375C26.875 1.35938 26.875 0.96875 27.1094 0.734375C27.3438 0.5 27.7344 0.5 27.9688 0.734375L39.8438 12.6094Z" fill="#111A2E"/>
</svg>
