<svg width="53" height="65" viewBox="0 0 53 65" fill="none" xmlns="http://www.w3.org/2000/svg">
<path d="M49.2743 0H34.5968C32.8628 0 31.4517 1.41113 31.4517 3.14516V5.24194C29.1389 5.24194 27.2581 7.12275 27.2581 9.43549C27.2581 11.7482 29.1389 13.629 31.4517 13.629V18.871H39.8388V16.7742C39.8388 15.6178 40.7792 14.6774 41.9356 14.6774C43.0919 14.6774 44.0323 15.6178 44.0323 16.7742V18.871H49.2743C51.0083 18.871 52.4194 17.4599 52.4194 15.7258V3.14516C52.4194 1.41113 51.0083 0 49.2743 0ZM50.3227 15.7258C50.3227 16.3035 49.853 16.7742 49.2743 16.7742H46.1291C46.1291 14.4615 44.2483 12.5807 41.9356 12.5807C39.6228 12.5807 37.742 14.4615 37.742 16.7742H33.5484V11.5323H31.4517C30.2953 11.5323 29.3549 10.5919 29.3549 9.43549C29.3549 8.27912 30.2953 7.33872 31.4517 7.33872H33.5484V3.14516C33.5484 2.5675 34.0181 2.09678 34.5968 2.09678H49.2743C49.853 2.09678 50.3227 2.5675 50.3227 3.14516V15.7258Z" fill="#3B38EB"/>
<path d="M31.4516 20.9677C29.1389 20.9677 27.2581 22.8485 27.2581 25.1613H23.0645V19.9193H20.9678C19.8114 19.9193 18.871 18.9789 18.871 17.8226C18.871 16.6662 19.8114 15.7258 20.9678 15.7258H23.0645V6.29028H20.2538C9.08638 6.29028 0 15.3767 0 26.5441C0 32.6436 2.70799 38.3573 7.42888 42.2196L11.5323 45.5776V48.4198C10.3151 48.8538 9.43549 50.007 9.43549 51.372C9.43549 52.8219 10.4262 54.0339 11.7629 54.3956C11.6172 54.7573 11.5323 55.1504 11.5323 55.5645C11.5323 56.9505 12.4391 58.1163 13.6857 58.5346C14.1197 62.1704 17.2177 65 20.9678 65C24.7178 65 27.8158 62.1704 28.2499 58.5346C29.4964 58.1163 30.4033 56.9505 30.4033 55.5645C30.4033 55.1504 30.3183 54.7573 30.1726 54.3945C31.5093 54.0318 32.5 52.8209 32.5 51.371C32.5 50.006 31.6204 48.8527 30.4033 48.4187V45.5765L34.5066 42.2185C39.2275 38.3573 41.9355 32.6436 41.9355 26.5441V25.1613H35.6452C35.6452 22.8485 33.7644 20.9677 31.4516 20.9677ZM20.2538 8.38706H20.9678V13.629C18.655 13.629 16.7742 15.5098 16.7742 17.8226C16.7742 20.1353 18.655 22.0161 20.9678 22.0161V25.1613H16.7742C16.7742 22.8485 14.8934 20.9677 12.5807 20.9677C10.2679 20.9677 8.3871 22.8485 8.3871 25.1613H2.1492C2.85791 15.7929 10.7072 8.38706 20.2538 8.38706ZM8.75614 40.5967C4.70831 37.2848 2.3117 32.456 2.11145 27.258H10.4839V25.1613C10.4839 24.0049 11.4243 23.0645 12.5807 23.0645C13.737 23.0645 14.6774 24.0049 14.6774 25.1613V27.258H20.9678V31.4516C18.655 31.4516 16.7742 33.3324 16.7742 35.6452C16.7742 37.9579 18.655 39.8387 20.9678 39.8387V48.2258H13.629V44.5837L8.75614 40.5967ZM20.9678 62.9032C18.437 62.9032 16.3192 61.099 15.8317 58.7097H26.1038C25.6163 61.099 23.4986 62.9032 20.9678 62.9032ZM27.2581 56.6129H14.6774C14.0987 56.6129 13.629 56.1422 13.629 55.5645C13.629 54.9869 14.0987 54.5161 14.6774 54.5161H27.2581C27.8368 54.5161 28.3065 54.9869 28.3065 55.5645C28.3065 56.1422 27.8368 56.6129 27.2581 56.6129ZM29.3549 52.4194H27.2581H14.6774H12.5807C12.0019 52.4194 11.5323 51.9486 11.5323 51.371C11.5323 50.7933 12.0019 50.3226 12.5807 50.3226H29.3549C29.9336 50.3226 30.4033 50.7933 30.4033 51.371C30.4033 51.9486 29.9336 52.4194 29.3549 52.4194ZM33.1794 40.5967L28.3065 44.5837V48.2258H23.0645V37.7419H20.9678C19.8114 37.7419 18.871 36.8015 18.871 35.6452C18.871 34.4888 19.8114 33.5484 20.9678 33.5484H23.0645V27.258H29.3549V25.1613C29.3549 24.0049 30.2953 23.0645 31.4516 23.0645C32.608 23.0645 33.5484 24.0049 33.5484 25.1613V27.258H39.8241C39.6238 32.456 37.2272 37.2848 33.1794 40.5967Z" fill="#3B38EB"/>
</svg>
