<svg width="65" height="65" viewBox="0 0 65 65" fill="none" xmlns="http://www.w3.org/2000/svg">
<path d="M16.25 23.2143H13.9286V3.48214C13.9286 2.55862 14.2954 1.67292 14.9485 1.0199C15.6015 0.366868 16.4872 0 17.4107 0H54.5536C55.4771 0 56.3628 0.366868 57.0158 1.0199C57.6688 1.67292 58.0357 2.55862 58.0357 3.48214V48.75H55.7143V3.48214C55.7143 3.1743 55.592 2.87907 55.3743 2.66139C55.1566 2.44372 54.8614 2.32143 54.5536 2.32143H17.4107C17.1029 2.32143 16.8076 2.44372 16.59 2.66139C16.3723 2.87907 16.25 3.1743 16.25 3.48214V23.2143ZM65 52.2321V59.1964C65 59.5043 64.8777 59.7995 64.66 60.0172C64.4424 60.2349 64.1471 60.3571 63.8393 60.3571H58.0357V61.5179C58.0357 62.4414 57.6688 63.3271 57.0158 63.9801C56.3628 64.6331 55.4771 65 54.5536 65H17.4107C16.4872 65 15.6015 64.6331 14.9485 63.9801C14.2954 63.3271 13.9286 62.4414 13.9286 61.5179V60.3571H12.7679C12.5167 60.3571 12.2723 60.2757 12.0714 60.125L7.42857 56.6429C7.28441 56.5347 7.16741 56.3945 7.08683 56.2334C7.00624 56.0722 6.96429 55.8945 6.96429 55.7143C6.96429 55.5341 7.00624 55.3564 7.08683 55.1952C7.16741 55.034 7.28441 54.8938 7.42857 54.7857L12.0714 51.3036C12.2723 51.1529 12.5167 51.0714 12.7679 51.0714H63.8393C64.1471 51.0714 64.4424 51.1937 64.66 51.4114C64.8777 51.6291 65 51.9243 65 52.2321ZM58.0357 58.0357V53.3929H13.1509L10.0634 55.7143L13.1509 58.0357H58.0357ZM55.7143 60.3571H16.25V61.5179C16.25 61.8257 16.3723 62.1209 16.59 62.3386C16.8076 62.5563 17.1029 62.6786 17.4107 62.6786H54.5536C54.8614 62.6786 55.1566 62.5563 55.3743 62.3386C55.592 62.1209 55.7143 61.8257 55.7143 61.5179V60.3571ZM62.6786 53.3929H60.3571V58.0357H62.6786V53.3929ZM23.2143 19.7321V16.25H22.0536C21.13 16.25 20.2444 15.8831 19.5913 15.2301C18.9383 14.5771 18.5714 13.6914 18.5714 12.7679C18.5714 11.8443 18.9383 10.9586 19.5913 10.3056C20.2444 9.65258 21.13 9.28571 22.0536 9.28571H23.2143C23.2143 8.97787 23.3366 8.68264 23.5543 8.46497C23.7719 8.24729 24.0672 8.125 24.375 8.125H31.0607L37.7812 4.77054C37.9579 4.6815 38.1545 4.63911 38.3522 4.64739C38.5498 4.65567 38.7421 4.71435 38.9108 4.81785C39.0794 4.92135 39.2188 5.06625 39.3156 5.23877C39.4125 5.41129 39.4637 5.60571 39.4643 5.80357V19.7321C39.4647 19.9294 39.4148 20.1235 39.3193 20.2961C39.2239 20.4688 39.086 20.6142 38.9187 20.7188C38.734 20.8332 38.5209 20.8936 38.3036 20.8929C38.1219 20.8918 37.943 20.848 37.7812 20.7652L31.0607 17.4107H30.1786V19.7321C30.1786 20.6557 29.8117 21.5414 29.1587 22.1944C28.5056 22.8474 27.6199 23.2143 26.6964 23.2143C25.7729 23.2143 24.8872 22.8474 24.2342 22.1944C23.5812 21.5414 23.2143 20.6557 23.2143 19.7321ZM27.8571 17.4107H25.5357V19.7321C25.5357 20.04 25.658 20.3352 25.8757 20.5529C26.0934 20.7706 26.3886 20.8929 26.6964 20.8929C27.0043 20.8929 27.2995 20.7706 27.5172 20.5529C27.7349 20.3352 27.8571 20.04 27.8571 19.7321V17.4107ZM37.1429 7.68393L32.5 10.0054V15.5304L37.1429 17.8518V7.68393ZM25.5357 10.4464V15.0893H30.1786V10.4464H25.5357ZM23.2143 13.9286V11.6071H22.0536C21.7457 11.6071 21.4505 11.7294 21.2328 11.9471C21.0151 12.1648 20.8929 12.46 20.8929 12.7679C20.8929 13.0757 21.0151 13.3709 21.2328 13.5886C21.4505 13.8063 21.7457 13.9286 22.0536 13.9286H23.2143ZM51.5241 5.71071L50.6188 3.575L42.4938 7.05714L43.3991 9.19286L51.5241 5.71071ZM53.3929 11.6071H44.1071V13.9286H53.3929V11.6071ZM50.6188 21.9607L51.5241 19.825L43.3991 16.3429L42.4938 18.4786L50.6188 21.9607ZM26.6964 48.75H3.48214C2.55862 48.75 1.67292 48.3831 1.0199 47.7301C0.366868 47.0771 0 46.1914 0 45.2679V29.0179C0 28.0943 0.366868 27.2086 1.0199 26.5556C1.67292 25.9026 2.55862 25.5357 3.48214 25.5357H26.6964C27.6199 25.5357 28.5056 25.9026 29.1587 26.5556C29.8117 27.2086 30.1786 28.0943 30.1786 29.0179V45.2679C30.1786 46.1914 29.8117 47.0771 29.1587 47.7301C28.5056 48.3831 27.6199 48.75 26.6964 48.75ZM3.48214 46.4286H26.6964C27.0043 46.4286 27.2995 46.3063 27.5172 46.0886C27.7349 45.8709 27.8571 45.5757 27.8571 45.2679V29.0179C27.8571 28.71 27.7349 28.4148 27.5172 28.1971C27.2995 27.9794 27.0043 27.8571 26.6964 27.8571H3.48214C3.1743 27.8571 2.87907 27.9794 2.66139 28.1971C2.44372 28.4148 2.32143 28.71 2.32143 29.0179V45.2679C2.32143 45.5757 2.44372 45.8709 2.66139 46.0886C2.87907 46.3063 3.1743 46.4286 3.48214 46.4286ZM10.4464 38.3036V31.3393C10.447 31.1414 10.4982 30.947 10.5951 30.7745C10.692 30.602 10.8313 30.4571 11 30.3536C11.1686 30.2501 11.3609 30.1914 11.5586 30.1831C11.7562 30.1748 11.9528 30.2172 12.1295 30.3062L19.0938 33.7884C19.2839 33.8858 19.4434 34.0338 19.5549 34.216C19.6663 34.3983 19.7252 34.6078 19.7252 34.8214C19.7252 35.0351 19.6663 35.2445 19.5549 35.4268C19.4434 35.6091 19.2839 35.7571 19.0938 35.8545L12.1295 39.3366C11.9678 39.4195 11.7888 39.4632 11.6071 39.4643C11.3898 39.465 11.1767 39.4047 10.992 39.2902C10.8247 39.1856 10.6868 39.0402 10.5914 38.8676C10.4959 38.6949 10.446 38.5008 10.4464 38.3036ZM12.7679 36.4232L15.9714 34.8214L12.7679 33.2196V36.4232ZM4.64286 44.1071H20.8929V41.7857H4.64286V44.1071ZM23.2143 44.1071H25.5357V41.7857H23.2143V44.1071ZM53.3929 35.9821H32.5V38.3036H53.3929V35.9821ZM53.3929 40.625H32.5V42.9464H53.3929V40.625ZM34.8214 45.2679H32.5V47.5893H34.8214V45.2679ZM39.4643 47.5893V45.2679H37.1429V47.5893H39.4643ZM44.1071 47.5893V45.2679H41.7857V47.5893H44.1071ZM48.75 47.5893V45.2679H46.4286V47.5893H48.75ZM53.3929 47.5893V45.2679H51.0714V47.5893H53.3929ZM53.3929 32.5C53.3929 32.8078 53.2706 33.1031 53.0529 33.3208C52.8352 33.5384 52.54 33.6607 52.2321 33.6607H33.6607C33.3529 33.6607 33.0576 33.5384 32.84 33.3208C32.6223 33.1031 32.5 32.8078 32.5 32.5V27.8571C32.5 27.5493 32.6223 27.2541 32.84 27.0364C33.0576 26.8187 33.3529 26.6964 33.6607 26.6964H52.2321C52.54 26.6964 52.8352 26.8187 53.0529 27.0364C53.2706 27.2541 53.3929 27.5493 53.3929 27.8571V32.5ZM51.0714 29.0179H34.8214V31.3393H51.0714V29.0179Z" fill="#3B38EB"/>
</svg>
