<svg width="65" height="65" viewBox="0 0 65 65" fill="none" xmlns="http://www.w3.org/2000/svg">
<path d="M11.9146 0C10.1328 0 8.66667 1.46617 8.66667 3.24793V37.9146C8.66667 39.3605 10.8354 39.3605 10.8354 37.9146V10.8376H54.1624V37.9146C54.1297 39.3918 56.3623 39.3918 56.3291 37.9146V3.24793C56.3291 1.46617 54.8651 0 53.0833 0H11.9146ZM11.9146 2.16882H53.0833C53.7022 2.16882 54.1624 2.629 54.1624 3.24793V8.6688H10.8354V3.24793C10.8354 2.629 11.2957 2.16882 11.9146 2.16882ZM14.0833 4.3334C13.485 4.3334 13 4.81846 13 5.41675C13 6.01508 13.485 6.49997 14.0833 6.49997C14.6816 6.49997 15.1667 6.01508 15.1667 5.41675C15.1667 4.81846 14.6816 4.3334 14.0833 4.3334ZM18.4167 4.3334C17.8184 4.3334 17.3333 4.81846 17.3333 5.41675C17.3333 6.01508 17.8184 6.49997 18.4167 6.49997C19.015 6.49997 19.5 6.01508 19.5 5.41675C19.5 4.81846 19.015 4.3334 18.4167 4.3334ZM22.75 4.3334C22.1517 4.3334 21.6667 4.81846 21.6667 5.41675C21.6667 6.01508 22.1517 6.49997 22.75 6.49997C23.3483 6.49997 23.8333 6.01508 23.8333 5.41675C23.8333 4.81846 23.3483 4.3334 22.75 4.3334ZM37.8617 4.33552C36.399 4.43502 36.4988 6.53805 37.9125 6.50222H50.9167C52.3294 6.46947 52.3294 4.36685 50.9167 4.33552H37.8617ZM3.25424 6.50222C1.47248 6.50222 0 7.96627 0 9.74802V48.75C0 50.5318 1.47248 51.9979 3.25424 51.9979H61.7521C63.5339 51.9979 65 50.5318 65 48.75V9.7479C65 7.96614 63.5339 6.5021 61.7521 6.5021H59.5854C58.1086 6.46934 58.1086 8.70155 59.5854 8.6688H61.7521C62.371 8.6688 62.8312 9.12898 62.8312 9.7479V41.1688H2.16667V9.7479C2.16667 9.12898 2.63535 8.6688 3.25424 8.6688H5.41243C6.88927 8.70155 6.88927 6.46934 5.41243 6.5021L3.25424 6.50222ZM35.7627 15.1498C35.2864 15.1465 34.864 15.4549 34.7217 15.9095L28.2196 35.4073C27.7611 36.7784 29.8178 37.466 30.2762 36.0949L36.7783 16.5907C37.0235 15.8892 36.5058 15.1547 35.7627 15.1498ZM40.4727 21.4128L45.9739 26.0021L40.4727 30.5852C39.2972 31.5054 40.7486 33.2419 41.8628 32.2483L48.3564 26.8337C48.875 26.4006 48.875 25.6038 48.3564 25.1707L41.8628 19.7477C41.6687 19.5815 41.4221 19.4893 41.1116 19.4897C40.0876 19.5793 39.7163 20.801 40.4727 21.4131V21.4128ZM23.8058 19.4917C23.5618 19.4999 23.3277 19.5899 23.1414 19.7476L16.6414 25.1706C16.1229 25.6037 16.1229 26.4005 16.6414 26.8336L23.1414 32.2482C24.2594 33.2894 25.7523 31.495 24.5252 30.5851L19.0239 26.002L24.5252 21.4127C25.3257 20.7573 24.8399 19.46 23.8058 19.4916V19.4917ZM2.16667 43.3376H62.8312V48.75C62.8312 49.3689 62.371 49.8291 61.7521 49.8291H3.25424C2.63535 49.8291 2.16667 49.3689 2.16667 48.75V43.3376ZM34.7259 45.5022L30.2804 45.5043C28.8995 45.6693 28.9923 47.6255 30.3312 47.6625H34.6667C36.1544 47.794 36.2783 45.532 34.7259 45.5022H34.7259ZM26.4232 54.0799C25.9883 54.0717 25.5901 54.3223 25.4118 54.7189C24.8901 55.8379 23.9555 57.1445 22.3416 58.4979H20.5833C18.8016 58.4979 17.3376 59.9726 17.3376 61.7543V63.9125C17.3354 64.5108 17.8184 64.9976 18.4167 65H46.5812C47.1828 65.0022 47.6711 64.5141 47.6688 63.9125V61.7543C47.6688 59.9726 46.1963 58.4979 44.4145 58.4979H42.6584C41.0447 57.1445 40.1098 55.8378 39.5882 54.7189C39.4048 54.3119 38.9908 54.0592 38.5451 54.082C37.7711 54.123 37.2878 54.9373 37.6247 55.6352C38.047 56.541 38.6918 57.5126 39.5607 58.4979H25.4393C26.3081 57.5126 26.953 56.541 27.3753 55.6352C27.7193 54.9247 27.2124 54.0967 26.4232 54.0799ZM20.5833 60.6667H44.4145C45.0334 60.6667 45.5021 61.1354 45.5021 61.7543V62.8334H19.5042V61.7543C19.5042 61.1354 19.9644 60.6667 20.5833 60.6667Z" fill="#3B38EB"/>
</svg>
