<svg width="65" height="65" viewBox="0 0 65 65" fill="none" xmlns="http://www.w3.org/2000/svg">
<path d="M15.1666 32.5001C15.1666 42.0572 22.9428 49.8334 32.5 49.8334C42.0571 49.8334 49.8333 42.0572 49.8333 32.5001C49.8333 22.9429 42.0571 15.1667 32.5 15.1667C22.9428 15.1667 15.1666 22.9429 15.1666 32.5001ZM24.3587 19.7243L26.1137 23.2343C26.2188 23.4434 26.3889 23.6146 26.598 23.7186L29.8848 25.362L27.5535 29.2501H23.8333C23.3664 29.2501 22.9536 29.548 22.8052 29.9911L21.9689 32.5001H17.3333C17.3333 27.1343 20.1424 22.4207 24.3587 19.7243ZM32.5 44.4167V47.6667C27.1851 47.6667 22.5084 44.914 19.8 40.7648L24.7216 39.1247L28.6 42.0334C28.9954 42.3292 29.5414 42.3216 29.927 42.0128L34.5865 38.2851L36.8333 40.5319V42.4873L33.32 43.3659C32.838 43.4862 32.5 43.9195 32.5 44.4167ZM47.6666 32.5001C47.6666 34.8899 47.0957 37.1443 46.1066 39.1582L43.6442 36.6958L45.318 34.1847C45.487 33.9312 45.5422 33.617 45.4675 33.3212L44.3841 28.9879C44.3115 28.6954 44.1187 28.4462 43.8544 28.3011C43.589 28.1548 43.2759 28.1277 42.9899 28.2231L40.4809 29.0594L38.0087 25.7639L38.7627 22.7501H44.1014C46.3222 25.3891 47.6666 28.7886 47.6666 32.5001ZM37.9166 20.5834C37.4194 20.5834 36.986 20.9214 36.8658 21.4035L35.7825 25.7368C35.7034 26.0532 35.7716 26.389 35.9666 26.6501L39.2166 30.9834C39.4961 31.3561 39.9836 31.5088 40.4256 31.3615L42.5663 30.6476L43.2488 33.3808L41.3486 36.2322C41.0615 36.6612 41.119 37.2342 41.484 37.5993L44.981 41.0963C42.6324 44.4948 38.9339 46.8792 34.6666 47.4934V45.2617L38.1799 44.3832C38.662 44.264 39 43.8307 39 43.3334V40.0834C39 39.7963 38.8862 39.5201 38.6825 39.3175L35.4325 36.0675C35.0425 35.6764 34.4207 35.6418 33.9895 35.9873L29.2283 39.7963L25.5666 37.0501C25.2828 36.8356 24.9123 36.7771 24.5732 36.8887L18.7373 38.8343C18.136 37.5332 17.7179 36.1347 17.5055 34.6667H22.75C23.2169 34.6667 23.6296 34.3688 23.778 33.9258L24.6144 31.4167H28.1666C28.5469 31.4167 28.9 31.2174 29.095 30.8913L32.345 25.4747C32.501 25.2157 32.5411 24.9037 32.4566 24.6145C32.3721 24.3252 32.1706 24.0837 31.9009 23.9482L27.8904 21.943L26.2643 18.6897C28.1688 17.8263 30.2759 17.3334 32.5 17.3334C36.0284 17.3334 39.2719 18.5554 41.8513 20.5834H37.9166Z" fill="#3B38EB"/>
<path d="M61.75 29.25C60.3395 29.25 59.1478 30.1589 58.6993 31.4167H52V33.5833H58.6993C59.1478 34.8411 60.3395 35.75 61.75 35.75C63.5418 35.75 65 34.2918 65 32.5C65 30.7082 63.5418 29.25 61.75 29.25ZM61.75 33.5833C61.1531 33.5833 60.6667 33.0969 60.6667 32.5C60.6667 31.9031 61.1531 31.4167 61.75 31.4167C62.3469 31.4167 62.8333 31.9031 62.8333 32.5C62.8333 33.0969 62.3469 33.5833 61.75 33.5833Z" fill="#3B38EB"/>
<path d="M61.75 50.9167C61.75 49.1249 60.2918 47.6667 58.5 47.6667C57.0895 47.6667 55.8978 48.5757 55.4493 49.8334H53.8167L51.922 45.0971C51.7573 44.6865 51.3597 44.4167 50.9166 44.4167H47.6666V46.5834H50.1832L52.078 51.3198C52.2426 51.7303 52.6402 52.0001 53.0833 52.0001H55.4493C55.8978 53.2578 57.0895 54.1667 58.5 54.1667C60.2918 54.1667 61.75 52.7086 61.75 50.9167ZM57.4166 50.9167C57.4166 50.3198 57.903 49.8334 58.5 49.8334C59.0969 49.8334 59.5833 50.3198 59.5833 50.9167C59.5833 51.5137 59.0969 52.0001 58.5 52.0001C57.903 52.0001 57.4166 51.5137 57.4166 50.9167Z" fill="#3B38EB"/>
<path d="M49.8333 63.9167C51.6252 63.9167 53.0833 62.4585 53.0833 60.6667C53.0833 58.8748 51.6252 57.4167 49.8333 57.4167C48.4228 57.4167 47.2312 58.3256 46.7827 59.5833H44.1502L42.2077 52.7854C42.0756 52.3207 41.6498 52 41.1667 52H35.75V54.1667H40.3498L42.2923 60.9646C42.4244 61.4293 42.8502 61.75 43.3333 61.75H46.7827C47.2312 63.0078 48.4228 63.9167 49.8333 63.9167ZM49.8333 59.5833C50.4303 59.5833 50.9167 60.0697 50.9167 60.6667C50.9167 61.2636 50.4303 61.75 49.8333 61.75C49.2364 61.75 48.75 61.2636 48.75 60.6667C48.75 60.0697 49.2364 59.5833 49.8333 59.5833Z" fill="#3B38EB"/>
<path d="M41.0529 12.401L44.0028 6.50011H46.7697C47.2258 7.78928 48.4564 8.66678 49.8323 8.66678C49.9937 8.66678 50.1573 8.65486 50.3219 8.62994C51.1799 8.49886 51.9361 8.04278 52.4507 7.34294C52.9653 6.64311 53.1765 5.78511 53.0465 4.92819C52.7768 3.15694 51.1193 1.93927 49.3448 2.20252C48.4868 2.33361 47.7306 2.78969 47.216 3.48953C47.0243 3.75061 46.8899 4.03769 46.7838 4.33344H43.3333C42.9228 4.33344 42.5479 4.56527 42.3637 4.93252L39.4138 10.8334H35.75V13.0001H40.0833C40.4939 13.0001 40.8688 12.7683 41.0529 12.401ZM48.9602 4.77436C49.1324 4.54144 49.3837 4.38869 49.6697 4.34536C49.725 4.33669 49.7792 4.33344 49.8333 4.33344C50.3598 4.33344 50.8235 4.71802 50.9047 5.25427C50.9481 5.54027 50.8777 5.82627 50.7065 6.05919C50.5343 6.29211 50.2829 6.44486 49.9969 6.48819C49.4141 6.58027 48.8529 6.17077 48.763 5.57927C48.7186 5.29327 48.789 5.00727 48.9602 4.77436Z" fill="#3B38EB"/>
<path d="M56.5327 16.2501C56.9812 17.5078 58.1729 18.4167 59.5834 18.4167C61.3752 18.4167 62.8334 16.9586 62.8334 15.1667C62.8334 13.3749 61.3752 11.9167 59.5834 11.9167C58.1729 11.9167 56.9812 12.8257 56.5327 14.0834H52C51.6382 14.0834 51.3002 14.2643 51.0987 14.5655L49.2538 17.3334H46.5834V19.5001H49.8334C50.1952 19.5001 50.5332 19.3192 50.7347 19.018L52.5796 16.2501H56.5327ZM59.5834 14.0834C60.1803 14.0834 60.6667 14.5698 60.6667 15.1667C60.6667 15.7637 60.1803 16.2501 59.5834 16.2501C58.9865 16.2501 58.5 15.7637 58.5 15.1667C58.5 14.5698 58.9865 14.0834 59.5834 14.0834Z" fill="#3B38EB"/>
<path d="M1.08333 27.0833C0.485333 27.0833 0 27.5687 0 28.1667V36.8333C0 37.4313 0.485333 37.9167 1.08333 37.9167H3.75267C4.0235 39.3553 4.407 40.7832 4.89883 42.1818L2.58375 43.5175C2.06483 43.8165 1.88825 44.4795 2.18725 44.9973L6.52058 52.5027C6.81958 53.0205 7.47933 53.1982 8.00042 52.8992L10.3198 51.5602C11.2797 52.6749 12.324 53.7203 13.4388 54.6791L12.0998 56.9985C11.8007 57.5174 11.9784 58.1793 12.4963 58.4783L20.0016 62.8117C20.5183 63.1096 21.1813 62.9319 21.4814 62.4152L22.8172 60.1001C24.2147 60.5919 25.6425 60.9754 27.0823 61.2463V63.9167C27.0823 64.5147 27.5676 65 28.1656 65H32.4989C33.0969 65 33.5823 64.5147 33.5823 63.9167V53.0833C33.5823 52.4853 33.0969 52 32.4989 52C21.7468 52 12.9989 43.2521 12.9989 32.5C12.9989 21.7479 21.7468 13 32.4989 13C33.0969 13 33.5823 12.5147 33.5823 11.9167V1.08333C33.5823 0.485333 33.0969 0 32.4989 0H28.1656C27.5676 0 27.0823 0.485333 27.0823 1.08333V3.75267C25.6436 4.0235 24.2158 4.407 22.8172 4.89883L21.4825 2.58375C21.1824 2.06483 20.5194 1.88717 20.0027 2.18725L12.4973 6.52058C11.9784 6.81958 11.8018 7.48258 12.1008 8.00042L13.4398 10.3198C12.3251 11.2797 11.2797 12.324 10.3209 13.4388L8.00042 12.1008C7.47933 11.8018 6.81958 11.9795 6.52058 12.4973L2.18725 20.0027C1.88825 20.5205 2.06592 21.1835 2.58375 21.4825L4.89883 22.8183C4.407 24.2168 4.0235 25.6447 3.75267 27.0833H1.08333ZM5.73625 28.3324C6.02983 26.4366 6.53575 24.5505 7.24208 22.7294C7.43492 22.2311 7.23667 21.6667 6.773 21.3991L4.60633 20.1478L7.85633 14.5188L10.0273 15.7723C10.4899 16.0387 11.0771 15.9282 11.4118 15.5144C12.6273 14.0075 14.0075 12.6273 15.5144 11.4118C15.9293 11.0771 16.0387 10.4888 15.7723 10.0273L14.5188 7.85633L20.1478 4.60633L21.3991 6.773C21.6667 7.23558 22.23 7.43275 22.7283 7.24208C24.5505 6.53575 26.4355 6.02983 28.3313 5.73625C28.86 5.655 29.25 5.2 29.25 4.66592V2.16667H31.4167V10.8604C19.9713 11.4259 10.8333 20.9159 10.8333 32.5C10.8333 44.0841 19.9713 53.5741 31.4167 54.1396V62.8333H29.25V60.3341C29.25 59.8 28.86 59.345 28.3324 59.2638C26.4366 58.9702 24.5505 58.4643 22.7294 57.7579C22.2311 57.5662 21.6678 57.7633 21.3991 58.227L20.1478 60.3937L14.5188 57.1437L15.7723 54.9727C16.0387 54.5101 15.9293 53.9229 15.5144 53.5882C14.0075 52.3727 12.6273 50.9925 11.4118 49.4856C11.076 49.0696 10.4888 48.9602 10.0273 49.2278L7.85633 50.4812L4.60633 44.8522L6.773 43.6009C7.23558 43.3333 7.43492 42.7689 7.24208 42.2717C6.53575 40.4495 6.02983 38.5645 5.73625 36.6687C5.655 36.14 5.2 35.75 4.66592 35.75H2.16667V29.25H4.66592C5.2 29.25 5.655 28.86 5.73625 28.3324Z" fill="#3B38EB"/>
</svg>
