<svg width="65" height="65" viewBox="0 0 65 65" fill="none" xmlns="http://www.w3.org/2000/svg">
<path d="M11.5323 6.11523C8.5454 6.11523 6.11523 8.5454 6.11523 11.5323C6.11523 14.5191 8.5454 16.9493 11.5323 16.9493C14.5191 16.9493 16.9493 14.5191 16.9493 11.5323C16.9493 8.5454 14.5191 6.11523 11.5323 6.11523ZM11.5323 14.8525C9.70177 14.8525 8.21201 13.3627 8.21201 11.5323C8.21201 9.70177 9.70177 8.21201 11.5323 8.21201C13.3627 8.21201 14.8525 9.70177 14.8525 11.5323C14.8525 13.3627 13.3627 14.8525 11.5323 14.8525Z" fill="#3B38EB"/>
<path d="M52.4194 50.3226V47.1774H59.7581V34.5968H38.7903V39.8387H32.5V31.4516H39.8387V27.2581H50.3226V17.8226H59.7581V5.24194H34.5968V10.4839H23.0645V8.96581L19.7673 8.14282C19.7621 8.13024 19.7569 8.11871 19.7516 8.10718L21.5003 5.19266L17.8719 1.56419L14.9573 3.3129C14.9458 3.30766 14.9343 3.30242 14.9217 3.29718L14.0987 0H8.96581L8.14282 3.29718C8.13024 3.30242 8.11871 3.30766 8.10718 3.3129L5.19266 1.56419L1.56315 5.19161L3.31185 8.10613C3.30661 8.11766 3.30137 8.12919 3.29613 8.14177L0 8.96581V14.0987L3.29718 14.9217C3.30242 14.9343 3.30766 14.9458 3.3129 14.9573L1.56419 17.8719L5.19266 21.5003L8.10718 19.7516C8.11871 19.7569 8.13024 19.7621 8.14282 19.7673L8.96581 23.0645H14.0987L14.9217 19.7673C14.9343 19.7621 14.9458 19.7569 14.9573 19.7516L17.8719 21.5003L21.5003 17.8719L19.7516 14.9573C19.7569 14.9458 19.7621 14.9343 19.7673 14.9217L23.0645 14.0987V12.5806H34.5968V17.8226H48.2258V25.1613H39.8387V20.9677H23.0645V31.4516H30.4032V41.9355H38.7903V47.1774H50.3226V50.3226H39.8387V53.9919L34.9459 50.3226H8.3871C5.48621 50.3226 0 51.8564 0 57.6613C0 63.4662 5.48621 65 8.3871 65H34.9459L39.8387 61.3306V65H65V50.3226H52.4194ZM20.9677 12.4611L18.1706 13.1604L17.9872 13.7045C17.8907 13.9886 17.7712 14.2769 17.6307 14.5579L17.376 15.0716L18.8615 17.5469L17.5469 18.8615L15.0716 17.376L14.5579 17.6307C14.2759 17.7712 13.9886 17.8907 13.7045 17.9872L13.1604 18.1706L12.4611 20.9677H10.6044L9.90516 18.1706L9.36105 17.9872C9.07693 17.8907 8.78863 17.7712 8.50766 17.6307L7.99395 17.376L5.51871 18.8615L4.20403 17.5469L5.6896 15.0716L5.43484 14.5579C5.29435 14.2759 5.17484 13.9886 5.07839 13.7045L4.89492 13.1604L2.09677 12.4611V10.6044L4.89387 9.90516L5.07734 9.36105C5.17379 9.07693 5.29331 8.78863 5.43379 8.50766L5.68855 7.99395L4.20298 5.51766L5.51766 4.20298L7.9929 5.68855L8.50661 5.43379C8.78863 5.29331 9.07589 5.17379 9.36 5.07734L9.90411 4.89387L10.6034 2.09677H12.4601L13.1594 4.89387L13.7035 5.07734C13.9876 5.17379 14.2759 5.29331 14.5569 5.43379L15.0706 5.68855L17.5458 4.20298L18.8605 5.51766L17.3749 7.9929L17.6297 8.50661C17.7702 8.78863 17.8897 9.07589 17.9861 9.36L18.1696 9.90411L20.9677 10.6034V12.4611ZM36.6935 7.33871H57.6613V15.7258H36.6935V7.33871ZM25.1613 23.0645H37.7419V29.3548H25.1613V23.0645ZM40.8871 36.6935H57.6613V45.0806H40.8871V36.6935ZM9.43548 52.4194H11.5323V62.9032H9.43548V52.4194ZM32.5 56.6129H13.629V52.4194H32.5V56.6129ZM13.629 58.7097H32.5V62.9032H13.629V58.7097ZM2.09677 57.6613C2.09677 53.7644 5.54492 52.7653 7.33871 52.5085V62.8131C5.54492 62.5573 2.09677 61.5581 2.09677 57.6613ZM34.5968 62.6411V52.6814L41.2362 57.6613L34.5968 62.6411ZM62.9032 62.9032H41.9355V59.7581L44.7315 57.6613L41.9355 55.5645V52.4194H62.9032V62.9032Z" fill="#3B38EB"/>
<path d="M42.9838 12.5807C43.5628 12.5807 44.0322 12.1113 44.0322 11.5323C44.0322 10.9533 43.5628 10.4839 42.9838 10.4839C42.4048 10.4839 41.9354 10.9533 41.9354 11.5323C41.9354 12.1113 42.4048 12.5807 42.9838 12.5807Z" fill="#3B38EB"/>
<path d="M47.1774 12.5807C47.7564 12.5807 48.2258 12.1113 48.2258 11.5323C48.2258 10.9533 47.7564 10.4839 47.1774 10.4839C46.5984 10.4839 46.129 10.9533 46.129 11.5323C46.129 12.1113 46.5984 12.5807 47.1774 12.5807Z" fill="#3B38EB"/>
<path d="M29.3548 27.2582C29.9338 27.2582 30.4032 26.7888 30.4032 26.2098C30.4032 25.6308 29.9338 25.1614 29.3548 25.1614C28.7758 25.1614 28.3064 25.6308 28.3064 26.2098C28.3064 26.7888 28.7758 27.2582 29.3548 27.2582Z" fill="#3B38EB"/>
<path d="M33.5484 27.2582C34.1274 27.2582 34.5968 26.7888 34.5968 26.2098C34.5968 25.6308 34.1274 25.1614 33.5484 25.1614C32.9694 25.1614 32.5 25.6308 32.5 26.2098C32.5 26.7888 32.9694 27.2582 33.5484 27.2582Z" fill="#3B38EB"/>
<path d="M51.371 12.5807C51.95 12.5807 52.4194 12.1113 52.4194 11.5323C52.4194 10.9533 51.95 10.4839 51.371 10.4839C50.792 10.4839 50.3226 10.9533 50.3226 11.5323C50.3226 12.1113 50.792 12.5807 51.371 12.5807Z" fill="#3B38EB"/>
<path d="M45.0806 41.9354C45.6596 41.9354 46.129 41.466 46.129 40.887C46.129 40.308 45.6596 39.8386 45.0806 39.8386C44.5016 39.8386 44.0322 40.308 44.0322 40.887C44.0322 41.466 44.5016 41.9354 45.0806 41.9354Z" fill="#3B38EB"/>
<path d="M49.2742 41.9354C49.8532 41.9354 50.3226 41.466 50.3226 40.887C50.3226 40.308 49.8532 39.8386 49.2742 39.8386C48.6952 39.8386 48.2258 40.308 48.2258 40.887C48.2258 41.466 48.6952 41.9354 49.2742 41.9354Z" fill="#3B38EB"/>
<path d="M53.4677 41.9354C54.0467 41.9354 54.5161 41.466 54.5161 40.887C54.5161 40.308 54.0467 39.8386 53.4677 39.8386C52.8887 39.8386 52.4193 40.308 52.4193 40.887C52.4193 41.466 52.8887 41.9354 53.4677 41.9354Z" fill="#3B38EB"/>
<path d="M49.2742 58.7096C49.8532 58.7096 50.3226 58.2402 50.3226 57.6612C50.3226 57.0822 49.8532 56.6128 49.2742 56.6128C48.6952 56.6128 48.2258 57.0822 48.2258 57.6612C48.2258 58.2402 48.6952 58.7096 49.2742 58.7096Z" fill="#3B38EB"/>
<path d="M53.4677 58.7096C54.0467 58.7096 54.5161 58.2402 54.5161 57.6612C54.5161 57.0822 54.0467 56.6128 53.4677 56.6128C52.8887 56.6128 52.4193 57.0822 52.4193 57.6612C52.4193 58.2402 52.8887 58.7096 53.4677 58.7096Z" fill="#3B38EB"/>
<path d="M57.6613 58.7096C58.2403 58.7096 58.7097 58.2402 58.7097 57.6612C58.7097 57.0822 58.2403 56.6128 57.6613 56.6128C57.0823 56.6128 56.6129 57.0822 56.6129 57.6612C56.6129 58.2402 57.0823 58.7096 57.6613 58.7096Z" fill="#3B38EB"/>
</svg>
