<svg width="85" height="94" viewBox="0 0 85 94" fill="none" xmlns="http://www.w3.org/2000/svg">
<circle opacity="0.1" cx="24.5" cy="24.5" r="24.5" fill="#3B38EB"/>
<path d="M78.6966 37.4547H77.0645V17.6119C77.0645 13.9647 74.098 10.9976 70.4516 10.9976H65.1613C61.5149 10.9976 58.5484 13.9647 58.5484 17.6119V21.5804H40.0323V14.9661C40.0323 12.7781 38.2521 10.9976 36.0645 10.9976H14.9032C12.7157 10.9976 10.9355 12.7781 10.9355 14.9661V30.8404C10.9355 33.0285 12.7157 34.809 14.9032 34.809H24.1613V37.4547H9.30342C5.82768 37.4547 3 40.283 3 43.7595C3 44.0214 3.01719 44.2833 3.04894 44.5413L7.756 82.2018C8.14881 85.3502 10.8376 87.7234 14.0092 87.7234H21.1154L28.2071 92.4526C28.7612 92.8204 29.404 93.0148 30.0666 93.0148C31.9143 93.0148 33.4194 91.5094 33.4194 89.6601V87.7234H73.9908C77.1624 87.7234 79.8525 85.3502 80.2453 82.2018L84.9524 44.5426C84.9828 44.282 85 44.0214 85 43.7595C85 40.283 82.1723 37.4547 78.6966 37.4547V37.4547ZM61.1936 17.6119C61.1936 15.4238 62.9737 13.6433 65.1613 13.6433H70.4516C72.6392 13.6433 74.4194 15.4238 74.4194 17.6119V24.2262H61.1936V17.6119ZM61.1936 26.8719H74.4194V29.5176H61.1936V26.8719ZM69.129 50.6833V32.1633H74.4194V50.6833H69.129ZM73.602 53.3291L68.5378 63.4595C68.2588 64.0191 67.3541 64.0178 67.0764 63.4595L62.0109 53.3291H73.602ZM61.1936 32.1633H66.4839V50.6833H61.1936V32.1633ZM40.0323 30.8404V24.2262H58.5484V37.4547H26.8065V34.809H36.0645C38.2521 34.809 40.0323 33.0285 40.0323 30.8404ZM14.9032 32.1633C14.1732 32.1633 13.5806 31.5693 13.5806 30.8404V14.9661C13.5806 14.2372 14.1732 13.6433 14.9032 13.6433H36.0645C36.7946 13.6433 37.3871 14.2372 37.3871 14.9661V30.8404C37.3871 31.5693 36.7946 32.1633 36.0645 32.1633H14.9032ZM82.3271 44.2119L77.62 81.8724C77.3912 83.6993 75.8305 85.0777 73.9908 85.0777H30.7742V89.6601C30.7742 90.1905 30.1116 90.5411 29.6725 90.2501L21.9169 85.0777H14.0092C12.1681 85.0777 10.6088 83.6993 10.38 81.8737L5.67294 44.2119C5.65442 44.0611 5.64516 43.9103 5.64516 43.7595C5.64516 41.7421 7.28516 40.1005 9.30342 40.1005H58.5484V52.3184L64.3439 63.9119H57.2258V66.5577H67.8065C69.1264 66.5577 70.3127 65.8235 70.9039 64.6435L77.0645 52.3184V40.1005H78.6966C80.7148 40.1005 82.3548 41.7421 82.3548 43.7595C82.3548 43.9103 82.3456 44.0611 82.3271 44.2119V44.2119Z" fill="#3B38EB"/>
<path d="M47.9678 54.7852V46.7144C47.9678 44.5264 46.1876 42.7458 44.0001 42.7458C42.0545 42.7458 40.4397 44.156 40.1037 46.0054C35.2869 49.8694 29.2731 52.0059 23.0887 52.0059H17.5484C13.9021 52.0059 10.9355 54.973 10.9355 58.6202V63.9116C10.9355 67.5587 13.9021 70.5259 17.5484 70.5259H19.1329L21.7794 82.4316H29.4517V71.3037C33.3229 72.2377 36.9679 74.009 40.1037 76.5251C40.4397 78.3757 42.0545 79.7859 44.0001 79.7859C46.1876 79.7859 47.9678 78.0053 47.9678 75.8173V67.7466C50.982 67.1314 53.2581 64.4606 53.2581 61.2659C53.2581 58.0712 50.982 55.4003 47.9678 54.7852ZM21.5162 67.8802H17.5484C15.8264 67.8802 14.3716 66.7703 13.8241 65.2345H18.871V62.5887H13.5807V59.943H18.871V57.2973H13.8241C14.3716 55.7615 15.8264 54.6516 17.5484 54.6516H21.5162V67.8802ZM26.8065 79.7859H23.8995L21.8429 70.5259H23.0901C24.3399 70.5259 25.5792 70.637 26.8078 70.8077V79.7859H26.8065ZM40.0323 73.161C35.3636 69.9452 29.8445 68.1328 24.1614 67.9278V54.604C29.8445 54.3976 35.3636 52.5866 40.0323 49.3707V73.161ZM45.3226 75.8173C45.3226 76.5462 44.7301 77.1402 44.0001 77.1402C43.27 77.1402 42.6775 76.5462 42.6775 75.8173V46.7144C42.6775 45.9855 43.27 45.3916 44.0001 45.3916C44.7301 45.3916 45.3226 45.9855 45.3226 46.7144V75.8173ZM47.9678 64.9911V57.542C49.5033 58.0897 50.613 59.5448 50.613 61.2672C50.613 62.9896 49.5033 64.4434 47.9678 64.9911Z" fill="#3B38EB"/>
<path d="M30.1826 19.8055L23.8819 16.6544C23.4044 16.4163 22.8674 16.2893 22.3331 16.2893C20.4246 16.2893 18.8706 17.8423 18.8706 19.7526V26.0547C18.8706 27.9649 20.4246 29.5179 22.3331 29.5179C22.8674 29.5179 23.4044 29.3909 23.8819 29.1528L30.1826 26.0017C31.3624 25.4117 32.0964 24.2238 32.0964 22.9036C32.0964 21.5834 31.3624 20.3955 30.1826 19.8055V19.8055ZM28.9989 23.6351L22.6982 26.7862C22.1876 27.0455 21.5158 26.6327 21.5144 26.0547V19.7526C21.5158 19.3015 21.8821 18.935 22.3331 18.935C22.4601 18.935 22.5857 18.9641 22.6982 19.021L28.9989 22.1721C29.278 22.3123 29.4513 22.5914 29.4513 22.9036C29.4513 23.2158 29.278 23.4949 28.9989 23.6351Z" fill="#3B38EB"/>
<path d="M57.2256 69.2034H75.7417V71.8485H57.2256V69.2034Z" fill="#3B38EB"/>
<path d="M57.2256 74.4946H75.7417V77.1398H57.2256V74.4946Z" fill="#3B38EB"/>
<path d="M67.8066 79.7864H70.4518V82.4315H67.8066V79.7864Z" fill="#3B38EB"/>
<path d="M73.0972 79.7864H75.7423V82.4315H73.0972V79.7864Z" fill="#3B38EB"/>
<path d="M57.2256 79.7864H59.8707V82.4315H57.2256V79.7864Z" fill="#3B38EB"/>
<path d="M62.5161 79.7864H65.1613V82.4315H62.5161V79.7864Z" fill="#3B38EB"/>
</svg>
