<svg width="84" height="93" viewBox="0 0 84 93" fill="none" xmlns="http://www.w3.org/2000/svg">
<circle opacity="0.1" cx="24.5" cy="24.5" r="24.5" fill="#3B38EB"/>
<path d="M4.73276 36.9667H2V31.5C2.00203 29.6884 2.72247 27.9514 4.00326 26.6704C5.28405 25.3893 7.02058 24.6687 8.83189 24.6667H55.2887V21.9334H52.556C52.2857 21.9334 52.0215 21.8532 51.7968 21.7031C51.5721 21.5529 51.397 21.3394 51.2936 21.0897C51.1901 20.84 51.1631 20.5652 51.2158 20.3001C51.2685 20.035 51.3987 19.7914 51.5898 19.6003L59.788 11.4003C59.9149 11.2734 60.0656 11.1727 60.2313 11.104C60.3971 11.0354 60.5748 11 60.7542 11C60.9337 11 61.1114 11.0354 61.2771 11.104C61.4429 11.1727 61.5936 11.2734 61.7204 11.4003L69.9187 19.6003C70.1098 19.7914 70.24 20.035 70.2927 20.3001C70.3454 20.5652 70.3183 20.84 70.2149 21.0897C70.1115 21.3394 69.9364 21.5529 69.7116 21.7031C69.4869 21.8532 69.2228 21.9334 68.9525 21.9334H66.2197V24.6667H71.6853C73.4966 24.6687 75.2331 25.3893 76.5139 26.6704C77.7947 27.9514 78.5151 29.6884 78.5172 31.5V58.8334H75.7844V31.5C75.7831 30.413 75.3509 29.3709 74.5824 28.6023C73.8139 27.8337 72.772 27.4013 71.6853 27.4H66.2197V52H63.487V20.5667C63.487 20.2042 63.631 19.8566 63.8872 19.6003C64.1434 19.344 64.491 19.2 64.8534 19.2H65.6539L60.7542 14.2994L55.8546 19.2H56.6551C57.0175 19.2 57.365 19.344 57.6213 19.6003C57.8775 19.8566 58.0215 20.2042 58.0215 20.5667V53.3667H55.2887V27.4H8.83189C7.74512 27.4013 6.70322 27.8337 5.93476 28.6023C5.1663 29.3709 4.73402 30.413 4.73276 31.5V36.9667ZM8.83189 79.3333H31.5901L28.3108 90.2667H25.2284V93H55.2887V90.2667H52.2064L50.4488 84.4071L47.8312 85.1929L49.3532 90.2667H31.1633L34.4426 79.3333H44.3577V76.6H8.83189C7.74512 76.5987 6.70322 76.1664 5.93476 75.3978C5.1663 74.6291 4.73402 73.587 4.73276 72.5V71.1334H42.9913V68.4H4.73276V39.7H2V72.5C2.00203 74.3117 2.72247 76.0486 4.00326 77.3297C5.28405 78.6107 7.02058 79.3313 8.83189 79.3333ZM49.8232 56.1V34.2334H44.3577V65.6667H8.83189V62.9334H14.2974V52C14.2974 51.6376 14.4414 51.2899 14.6976 51.0336C14.9538 50.7773 15.3014 50.6334 15.6638 50.6334H23.862C24.2244 50.6334 24.572 50.7773 24.8282 51.0336C25.0845 51.2899 25.2284 51.6376 25.2284 52V62.9334H27.9612V42.4334C27.9612 42.0709 28.1051 41.7233 28.3614 41.467C28.6176 41.2107 28.9652 41.0667 29.3276 41.0667H37.5258C37.8882 41.0667 38.2358 41.2107 38.492 41.467C38.7482 41.7233 38.8922 42.0709 38.8922 42.4334V62.9334H41.625V32.8667C41.625 32.5042 41.7689 32.1566 42.0252 31.9003C42.2814 31.644 42.6289 31.5 42.9913 31.5H51.1896C51.552 31.5 51.8995 31.644 52.1558 31.9003C52.412 32.1566 52.556 32.5042 52.556 32.8667V56.1H49.8232ZM22.4957 53.3667H17.0302V62.9334H22.4957V53.3667ZM36.1594 43.8H30.6939V62.9334H36.1594V43.8ZM8.83189 30.1334V32.8667H11.5646V30.1334H8.83189ZM17.0302 30.1334H14.2974V32.8667H17.0302V30.1334ZM19.7629 30.1334V32.8667H22.4957V30.1334H19.7629ZM82.7814 86.0015C83.5476 86.7719 83.9792 87.8134 83.9827 88.9C83.9832 89.4386 83.8775 89.9719 83.6716 90.4696C83.4658 90.9672 83.1639 91.4194 82.7832 91.8002C82.4024 92.1811 81.9503 92.483 81.4528 92.6889C80.9552 92.8948 80.422 93.0005 79.8835 93C78.7983 92.9905 77.7593 92.5597 76.9856 91.7985L70.4453 85.257C67.005 87.2868 62.9427 87.9919 59.0198 87.2401C55.097 86.4882 51.583 84.331 49.1366 81.1729C46.6903 78.0149 45.4796 74.0727 45.7315 70.0856C45.9834 66.0985 47.6806 62.3402 50.5049 59.5152C53.3293 56.6903 57.0868 54.9927 61.0731 54.7407C65.0594 54.4888 69.0007 55.6997 72.1581 58.1466C75.3155 60.5935 77.4722 64.1082 78.2239 68.0319C78.9756 71.9556 78.2707 76.0188 76.2413 79.4598L82.7814 86.0015ZM75.7844 71.1334C75.7844 68.4303 74.983 65.788 73.4816 63.5406C71.9802 61.2931 69.8463 59.5414 67.3495 58.507C64.8528 57.4726 62.1055 57.202 59.4549 57.7293C56.8044 58.2566 54.3698 59.5582 52.4589 61.4696C50.548 63.3809 49.2466 65.816 48.7194 68.4671C48.1922 71.1182 48.4628 73.8661 49.4969 76.3634C50.5311 78.8606 52.2824 80.995 54.5294 82.4968C56.7764 83.9985 59.4182 84.8 62.1206 84.8C65.7432 84.7959 69.2163 83.3547 71.7778 80.7926C74.3394 78.2305 75.7803 74.7567 75.7844 71.1334ZM80.8489 87.9345L74.6341 81.718C74.0447 82.4139 73.3988 83.06 72.703 83.6494L78.9182 89.8656C79.0437 89.9978 79.1944 90.1035 79.3614 90.1765C79.5284 90.2496 79.7083 90.2884 79.8905 90.2908C80.0728 90.2931 80.2536 90.259 80.4225 90.1903C80.5913 90.1216 80.7447 90.0199 80.8736 89.8909C81.0025 89.762 81.1042 89.6086 81.1729 89.4398C81.2415 89.2709 81.2757 89.09 81.2733 88.9077C81.2709 88.7254 81.2321 88.5454 81.1591 88.3784C81.0861 88.2114 80.9804 88.0607 80.8482 87.9351L80.8489 87.9345ZM73.0516 71.1334C73.0516 73.2958 72.4105 75.4096 71.2094 77.2076C70.0083 79.0056 68.3011 80.4069 66.3037 81.2344C64.3064 82.0619 62.1085 82.2785 59.9881 81.8566C57.8677 81.4347 55.92 80.3934 54.3912 78.8644C52.8625 77.3353 51.8214 75.3872 51.3996 73.2663C50.9779 71.1455 51.1943 68.9472 52.0217 66.9493C52.849 64.9515 54.2501 63.244 56.0477 62.0426C57.8453 60.8413 59.9587 60.2 62.1206 60.2C65.0187 60.2033 67.7972 61.3562 69.8464 63.4059C71.8957 65.4556 73.0484 68.2346 73.0516 71.1334ZM70.3189 71.1334C70.3189 69.5115 69.8381 67.9262 68.9372 66.5777C68.0364 65.2292 66.756 64.1782 65.258 63.5575C63.7599 62.9369 62.1115 62.7745 60.5212 63.0909C58.9309 63.4073 57.4701 64.1883 56.3236 65.3351C55.177 66.4819 54.3962 67.943 54.0799 69.5336C53.7635 71.1242 53.9259 72.773 54.5464 74.2714C55.1669 75.7697 56.2177 77.0504 57.5659 77.9514C58.9141 78.8524 60.4992 79.3333 62.1206 79.3333C64.2942 79.3309 66.3781 78.4663 67.915 76.929C69.452 75.3917 70.3165 73.3074 70.3189 71.1334ZM56.6551 71.1334H59.3879C59.3887 70.4087 59.6769 69.714 60.1892 69.2015C60.7015 68.6891 61.3961 68.4009 62.1206 68.4V65.6667C60.6716 65.6683 59.2823 66.2448 58.2577 67.2696C57.2331 68.2945 56.6567 69.684 56.6551 71.1334ZM74.418 19.2H77.1508C77.1484 17.026 76.2839 14.9417 74.7469 13.4044C73.21 11.8671 71.1261 11.0024 68.9525 11V13.7334C70.4016 13.735 71.7908 14.3115 72.8154 15.3363C73.84 16.3612 74.4164 17.7507 74.418 19.2Z" fill="#3B38EB"/>
</svg>
