<svg width="84" height="94" viewBox="0 0 84 94" fill="none" xmlns="http://www.w3.org/2000/svg">
<circle opacity="0.1" cx="24.5" cy="24.5" r="24.5" fill="#3B38EB"/>
<path d="M17.0307 12C14.783 12 12.9333 13.8496 12.9333 16.0974V59.8308C12.9333 61.6547 15.6693 61.6547 15.6693 59.8308V25.6721H70.328V59.8308C70.2867 61.6943 73.1032 61.6943 73.0613 59.8308V16.0974C73.0613 13.8496 71.2144 12 68.9667 12H17.0307ZM17.0307 14.7361H68.9667C69.7475 14.7361 70.328 15.3166 70.328 16.0974V22.936H15.6693V16.0974C15.6693 15.3166 16.2499 14.7361 17.0307 14.7361ZM19.7667 17.4668C19.0119 17.4668 18.4 18.0787 18.4 18.8334C18.4 19.5883 19.0119 20.2 19.7667 20.2C20.5214 20.2 21.1333 19.5883 21.1333 18.8334C21.1333 18.0787 20.5214 17.4668 19.7667 17.4668ZM25.2333 17.4668C24.4786 17.4668 23.8667 18.0787 23.8667 18.8334C23.8667 19.5883 24.4786 20.2 25.2333 20.2C25.9881 20.2 26.6 19.5883 26.6 18.8334C26.6 18.0787 25.9881 17.4668 25.2333 17.4668ZM30.7 17.4668C29.9452 17.4668 29.3333 18.0787 29.3333 18.8334C29.3333 19.5883 29.9452 20.2 30.7 20.2C31.4548 20.2 32.0667 19.5883 32.0667 18.8334C32.0667 18.0787 31.4548 17.4668 30.7 17.4668ZM49.7639 17.4694C47.9187 17.5949 48.0447 20.248 49.828 20.2028H66.2333C68.0156 20.1615 68.0156 17.5089 66.2333 17.4694H49.7639ZM6.10534 20.2028C3.85759 20.2028 2 22.0498 2 24.2975V73.5C2 75.7478 3.85759 77.5974 6.10534 77.5974H79.9026C82.1504 77.5974 84 75.7478 84 73.5V24.2974C84 22.0496 82.1504 20.2026 79.9026 20.2026H77.1693C75.3062 20.1613 75.3062 22.9773 77.1693 22.936H79.9026C80.6835 22.936 81.264 23.5166 81.264 24.2974V63.936H4.73333V24.2974C4.73333 23.5166 5.32459 22.936 6.10534 22.936H8.82799C10.6911 22.9773 10.6911 20.1613 8.82799 20.2026L6.10534 20.2028ZM47.116 31.112C46.5152 31.1079 45.9823 31.497 45.8027 32.0704L37.6001 56.6677C37.0217 58.3974 39.6163 59.2649 40.1946 57.5351L48.3973 32.9299C48.7066 32.0449 48.0535 31.1182 47.116 31.112ZM53.0578 39.0131L59.9979 44.8027L53.0578 50.5844C51.5749 51.7453 53.406 53.9359 54.8115 52.6825L63.0035 45.8518C63.6577 45.3054 63.6577 44.3002 63.0035 43.7538L54.8115 36.9125C54.5666 36.7028 54.2556 36.5865 53.8639 36.587C52.5721 36.7001 52.1037 38.2413 53.0578 39.0134V39.0131ZM32.032 36.5895C31.7242 36.5998 31.4288 36.7135 31.1938 36.9123L22.9938 43.7537C22.3397 44.3 22.3397 45.3053 22.9938 45.8516L31.1938 52.6824C32.6041 53.9959 34.4875 51.7322 32.9395 50.5843L25.9994 44.8026L32.9395 39.013C33.9493 38.1861 33.3365 36.5496 32.032 36.5893V36.5895ZM4.73333 66.6721H81.264V73.5C81.264 74.2808 80.6835 74.8613 79.9026 74.8613H6.10534C5.32459 74.8613 4.73333 74.2808 4.73333 73.5V66.6721ZM45.8081 69.4028L40.1999 69.4054C38.4579 69.6136 38.5749 72.0815 40.264 72.1281H45.7333C47.6102 72.2939 47.7665 69.4404 45.8081 69.4028H45.8081ZM35.3338 80.2239C34.7853 80.2135 34.2829 80.5296 34.0579 81.03C33.3998 82.4416 32.2208 84.0899 30.1848 85.7973H27.9667C25.7189 85.7973 23.872 87.6577 23.872 89.9054V92.6281C23.8693 93.3829 24.4786 93.997 25.2333 94H60.764C61.5229 94.0027 62.1389 93.387 62.136 92.6281V89.9054C62.136 87.6577 60.2784 85.7973 58.0307 85.7973H55.8152C53.7794 84.09 52.6001 82.4415 51.9421 81.03C51.7106 80.5166 51.1884 80.1978 50.6261 80.2266C49.6497 80.2782 49.04 81.3055 49.465 82.1859C49.9977 83.3286 50.8113 84.5543 51.9074 85.7973H34.0926C35.1887 84.5543 36.0022 83.3286 36.535 82.1859C36.9689 81.2897 36.3294 80.2451 35.3338 80.2239ZM27.9667 88.5334H58.0307C58.8113 88.5334 59.4027 89.1246 59.4027 89.9054V91.2668H26.6053V89.9054C26.6053 89.1246 27.1859 88.5334 27.9667 88.5334Z" fill="#3B38EB"/>
</svg>
