<svg width="60" height="60" viewBox="0 0 60 60" fill="none" xmlns="http://www.w3.org/2000/svg">
<circle cx="30" cy="30" r="30" fill="#3B38EB"/>
<path d="M29.2251 27.5362C28.7279 27.5914 28.3688 28.061 28.3965 28.5858C28.4517 29.083 28.8936 29.4697 29.4461 29.4144C29.9985 29.3592 30.5509 29.5249 30.9376 29.9116C31.352 30.3259 31.5177 30.8784 31.4624 31.4308C31.4072 31.9832 31.7939 32.4252 32.2911 32.4804C32.5949 32.508 32.8711 32.3975 33.0645 32.2042C33.2026 32.0661 33.3131 31.8451 33.3407 31.6518C33.4512 30.4917 33.0645 29.3868 32.2635 28.5858C31.4901 27.8124 30.3852 27.4257 29.2251 27.5362ZM28.866 23.8073C28.3136 23.8625 27.9545 24.3321 28.0098 24.8293C28.0374 25.3541 28.507 25.7132 29.0318 25.6855C30.7443 25.5198 32.3739 26.0999 33.5617 27.2876C34.7218 28.4477 35.3294 30.105 35.1637 31.8175C35.1085 32.3147 35.4675 32.7842 35.9923 32.8119C36.2962 32.8395 36.5448 32.7566 36.7381 32.5633C36.9038 32.3975 36.9867 32.2042 37.042 31.9832C37.2905 29.7459 36.5171 27.5362 34.9151 25.9341C33.3131 24.3321 31.131 23.5863 28.866 23.8073ZM28.507 20.0784C27.9821 20.106 27.6231 20.5756 27.6507 21.1004C27.7059 21.5976 28.1479 21.9843 28.6727 21.9567C31.4901 21.6804 34.2522 22.6196 36.2409 24.6083C38.202 26.5694 39.1688 29.3592 38.8926 32.1766C38.865 32.7014 39.2517 33.1433 39.7488 33.1986C40.0527 33.2262 40.3289 33.1157 40.5222 32.9223C40.6603 32.7842 40.7432 32.5909 40.7708 32.3423C41.1299 29.0001 39.9698 25.6855 37.5668 23.2825C35.1361 20.8518 31.8768 19.747 28.507 20.0784ZM25.3581 31.0165C25.662 30.7679 25.8001 30.2983 25.6343 29.9116L24.2256 26.6799C24.0599 26.238 23.5627 26.017 23.1484 26.0999L20.1101 26.818C19.6957 26.9009 19.3919 27.3152 19.3919 27.7571C19.3919 35.3254 25.5515 41.485 33.1197 41.485C33.5617 41.485 33.976 41.1811 34.0588 40.7668L34.777 37.7285C34.8599 37.3141 34.6389 36.817 34.197 36.6512L30.9653 35.2425C30.5786 35.0768 30.109 35.2149 29.8604 35.5187L28.5346 37.1208C26.4353 36.1264 24.7504 34.4415 23.7561 32.3423L25.3581 31.0165Z" fill="white"/>
</svg>
