<svg width="60" height="60" viewBox="0 0 60 60" fill="none" xmlns="http://www.w3.org/2000/svg">
<circle cx="30" cy="30" r="30" fill="#3B38EB"/>
<path d="M38.125 23C39.1406 23 40 23.8594 40 24.875C40 25.5 39.6875 26.0469 39.2188 26.3984L30.7422 32.7656C30.2734 33.1172 29.6875 33.1172 29.2188 32.7656L20.7422 26.3984C20.2734 26.0469 20 25.5 20 24.875C20 23.8594 20.8203 23 21.875 23H38.125ZM28.4766 33.7812C29.375 34.4453 30.5859 34.4453 31.4844 33.7812L40 27.375V35.5C40 36.9062 38.8672 38 37.5 38H22.5C21.0938 38 20 36.9062 20 35.5V27.375L28.4766 33.7812Z" fill="white"/>
</svg>
