<svg width="41" height="26" viewBox="0 0 41 26" fill="none" xmlns="http://www.w3.org/2000/svg">
<path d="M1.15625 12.6094C0.921875 12.8438 0.921875 13.2344 1.15625 13.4688L13.0312 25.3438C13.1094 25.5 13.2656 25.5 13.5 25.5C13.6562 25.5 13.8125 25.4219 13.8906 25.2656C14.125 25.0312 14.125 24.6406 13.8906 24.4062L3.10938 13.625H40.375C40.6875 13.625 41 13.3906 41 13C41 12.6875 40.6875 12.375 40.375 12.375H3.10938L13.8906 1.59375C14.125 1.35938 14.125 0.96875 13.8906 0.734375C13.6562 0.5 13.2656 0.5 13.0312 0.734375L1.15625 12.6094Z" fill="#111A2E"/>
</svg>
