<svg width="90" height="90" viewBox="0 0 90 90" fill="none" xmlns="http://www.w3.org/2000/svg">
<circle cx="45" cy="45" r="45" fill="#EFEFFE"/>
<path d="M47.4644 65.003C47.0986 65.003 46.8021 64.7051 46.8021 64.3377V62.5687C46.8021 62.3154 46.5969 62.1092 46.3447 62.1092H44.5668C44.3147 62.1092 44.1095 62.3154 44.1095 62.5687V64.3377C44.1095 64.7051 43.813 65.003 43.4472 65.003C43.0815 65.003 42.785 64.7051 42.785 64.3377V62.5687C42.785 61.5817 43.5843 60.7787 44.5668 60.7787H46.3447C47.3273 60.7787 48.1266 61.5817 48.1266 62.5687V64.3377C48.1266 64.7051 47.8302 65.003 47.4644 65.003Z" fill="#3B38EB"/>
<path d="M51.8231 40.6843C51.6055 40.389 51.1908 40.327 50.8968 40.5455C50.6028 40.7642 50.541 41.1808 50.7586 41.4761L54.0471 45.9379C54.4129 46.4342 54.3864 47.1817 53.9869 47.6398L50.4439 51.7016H40.4679L36.9249 47.6398C36.5253 47.1817 36.4988 46.4342 36.8646 45.9379L43.3936 37.0795V42.1271C42.5659 42.7661 42.0821 43.7434 42.0821 44.8102C42.0821 46.6789 43.5956 48.1993 45.4559 48.1993C47.3161 48.1993 48.8296 46.6789 48.8296 44.8102C48.8296 43.7914 48.3783 42.8401 47.6065 42.1992V37.1994L49.0607 39.1724C49.2783 39.4678 49.6931 39.5298 49.987 39.3112C50.281 39.0925 50.3428 38.6759 50.1252 38.3806L47.2846 34.5265C46.8375 33.9198 46.1709 33.5718 45.456 33.5718C44.741 33.5718 44.0744 33.9198 43.6273 34.5265L35.8002 45.1462C35.0662 46.1422 35.1214 47.5912 35.9288 48.5168L38.8836 51.9041C38.1458 52.2497 37.6329 53.0014 37.6329 53.8717V57.0455C37.6329 58.0172 38.2719 58.8417 39.15 59.1174L39.3307 64.361C39.343 64.7204 39.6369 65.0032 39.9921 65.0032C39.9999 65.0032 40.0076 65.0032 40.0154 65.0029C40.381 64.9901 40.667 64.6822 40.6543 64.315L40.4786 59.2157H50.5216L50.3459 64.315C50.3332 64.6822 50.6193 64.9901 50.9848 65.0029C50.9926 65.0032 51.0003 65.0032 51.0081 65.0032C51.3632 65.0032 51.6572 64.7204 51.6696 64.361L51.8513 59.087C52.683 58.7849 53.279 57.9839 53.279 57.0455V53.8717C53.279 53.0014 52.7661 52.2497 52.0283 51.9041L54.9831 48.5168C55.7905 47.5913 55.8457 46.1422 55.1117 45.1462L51.8231 40.6843ZM45.4559 34.9022C45.751 34.9022 46.0224 35.0499 46.22 35.3181L46.282 35.4022V42.5335C46.282 42.7573 46.394 42.9662 46.5802 43.0892C47.1593 43.4721 47.5051 44.1154 47.5051 44.81C47.5051 45.9451 46.5858 46.8686 45.4559 46.8686C44.3259 46.8686 43.4066 45.9451 43.4066 44.81C43.4066 44.0825 43.7773 43.4233 44.3982 43.0464C44.5967 42.9259 44.718 42.7099 44.718 42.477V35.2859C44.9132 35.0389 45.1733 34.9022 45.4559 34.9022ZM51.9545 57.0454C51.9545 57.5082 51.5796 57.8849 51.1188 57.8849H39.793C39.3322 57.8849 38.9573 57.5082 38.9573 57.0454V53.8715C38.9573 53.4086 39.3322 53.032 39.793 53.032H51.1188C51.5797 53.032 51.9545 53.4086 51.9545 53.8715V57.0454Z" fill="#3B38EB"/>
<path d="M32.2769 40.8885C32.3639 38.7807 32.9475 36.7171 33.9803 34.8884C34.1608 34.5688 34.0493 34.1628 33.7311 33.9815C33.413 33.8001 33.0089 33.9122 32.8284 34.2318C31.6837 36.2584 31.04 38.5465 30.9514 40.882C29.8085 41.1739 28.9607 42.2161 28.9607 43.4538C28.9607 44.9168 30.1456 46.1071 31.602 46.1071C33.0584 46.1071 34.2433 44.9168 34.2433 43.4538C34.2433 42.225 33.4074 41.1889 32.2769 40.8885ZM31.602 44.7766C30.8759 44.7766 30.2852 44.1832 30.2852 43.4538C30.2852 42.7244 30.8759 42.1309 31.602 42.1309C32.3281 42.1309 32.9188 42.7244 32.9188 43.4538C32.9188 44.1832 32.3281 44.7766 31.602 44.7766Z" fill="#3B38EB"/>
<path d="M66.5978 25H64.4696C63.6965 25 63.0674 25.6319 63.0674 26.4086V26.8123H47.9663V26.4086C47.9663 25.6319 47.3372 25 46.5641 25H44.4359C43.6628 25 43.0337 25.6319 43.0337 26.4086V26.8123H27.9326V26.4086C27.9326 25.6319 27.3035 25 26.5304 25H24.4022C23.629 25 23 25.6319 23 26.4086V28.5465C23 29.3232 23.629 29.9551 24.4022 29.9551H26.5304C27.3035 29.9551 27.9326 29.3232 27.9326 28.5465V28.1428H39.4288C37.5903 28.9912 35.9306 30.2235 34.5677 31.7788C34.326 32.0546 34.3526 32.475 34.6272 32.7178C34.753 32.829 34.9091 32.8837 35.0646 32.8837C35.2482 32.8837 35.431 32.8074 35.5619 32.6581C37.5202 30.4234 40.1509 28.9211 43.0337 28.3746V28.5466C43.0337 29.3233 43.6628 29.9552 44.4359 29.9552H46.5641C47.3372 29.9552 47.9663 29.3233 47.9663 28.5466V28.3745C53.9783 29.5125 58.4701 34.7207 58.7238 40.8884C57.593 41.1885 56.7567 42.2247 56.7567 43.4538C56.7567 44.9169 57.9416 46.1072 59.398 46.1072C60.8544 46.1072 62.0393 44.9169 62.0393 43.4538C62.0393 42.2163 61.1915 41.1742 60.0488 40.8821C59.8371 35.286 56.4537 30.4007 51.5715 28.143H63.0674V28.5467C63.0674 29.3234 63.6965 29.9553 64.4696 29.9553H66.5978C67.371 29.9553 68 29.3234 68 28.5467V26.4086C68 25.6319 67.371 25 66.5978 25ZM26.6081 28.5465C26.6081 28.5895 26.5732 28.6246 26.5304 28.6246H24.4022C24.3594 28.6246 24.3245 28.5895 24.3245 28.5465V26.4086C24.3245 26.3656 24.3594 26.3305 24.4022 26.3305H26.5304C26.5732 26.3305 26.6081 26.3656 26.6081 26.4086V28.5465ZM60.7148 43.4536C60.7148 44.183 60.1241 44.7765 59.398 44.7765C58.6719 44.7765 58.0812 44.183 58.0812 43.4536C58.0812 42.7242 58.6719 42.1308 59.398 42.1308C60.1241 42.1308 60.7148 42.7242 60.7148 43.4536ZM46.6418 28.5465C46.6418 28.5895 46.6069 28.6246 46.5641 28.6246H44.4359C44.3931 28.6246 44.3582 28.5895 44.3582 28.5465V26.4086C44.3582 26.3656 44.3931 26.3305 44.4359 26.3305H46.5641C46.6069 26.3305 46.6418 26.3656 46.6418 26.4086V28.5465ZM66.6755 28.5465C66.6755 28.5895 66.6406 28.6246 66.5978 28.6246H64.4696C64.4268 28.6246 64.3919 28.5895 64.3919 28.5465V26.4086C64.3919 26.3656 64.4268 26.3305 64.4696 26.3305H66.5978C66.6406 26.3305 66.6755 26.3656 66.6755 26.4086V28.5465Z" fill="#3B38EB"/>
</svg>
