<svg width="90" height="90" viewBox="0 0 90 90" fill="none" xmlns="http://www.w3.org/2000/svg">
<circle cx="45" cy="45" r="45" fill="#EFEFFE"/>
<path d="M24.5 37.25H23V34.25C23.0011 33.2558 23.3966 32.3026 24.0996 31.5996C24.8026 30.8966 25.7558 30.5011 26.75 30.5H52.25V29H50.75C50.6017 29 50.4567 28.956 50.3333 28.8736C50.21 28.7912 50.1138 28.6741 50.0571 28.537C50.0003 28.4 49.9854 28.2492 50.0144 28.1037C50.0433 27.9582 50.1148 27.8246 50.2197 27.7197L54.7197 23.2197C54.7893 23.15 54.872 23.0948 54.963 23.0571C55.054 23.0194 55.1515 23 55.25 23C55.3485 23 55.446 23.0194 55.537 23.0571C55.628 23.0948 55.7107 23.15 55.7803 23.2197L60.2803 27.7197C60.3852 27.8246 60.4567 27.9582 60.4856 28.1037C60.5146 28.2492 60.4997 28.4 60.4429 28.537C60.3862 28.6741 60.29 28.7912 60.1667 28.8736C60.0434 28.956 59.8983 29 59.75 29H58.25V30.5H61.25C62.2442 30.5011 63.1974 30.8966 63.9004 31.5996C64.6034 32.3026 64.9989 33.2558 65 34.25V49.25H63.5V34.25C63.4993 33.6535 63.262 33.0816 62.8402 32.6598C62.4184 32.238 61.8465 32.0007 61.25 32H58.25V45.5H56.75V28.25C56.75 28.0511 56.829 27.8604 56.9697 27.7197C57.1103 27.579 57.3011 27.5 57.5 27.5H57.9394L55.25 24.8106L52.5606 27.5H53C53.1989 27.5 53.3897 27.579 53.5303 27.7197C53.671 27.8604 53.75 28.0511 53.75 28.25V46.25H52.25V32H26.75C26.1535 32.0007 25.5816 32.238 25.1598 32.6598C24.738 33.0816 24.5007 33.6535 24.5 34.25V37.25ZM26.75 60.5H39.2419L37.4419 66.5H35.75V68H52.25V66.5H50.5581L49.5934 63.2844L48.1566 63.7157L48.992 66.5H39.0076L40.8076 60.5H46.25V59H26.75C26.1535 58.9993 25.5816 58.7621 25.1598 58.3403C24.738 57.9184 24.5007 57.3466 24.5 56.75V56H45.5V54.5H24.5V38.75H23V56.75C23.0011 57.7443 23.3966 58.6974 24.0996 59.4004C24.8026 60.1035 25.7558 60.4989 26.75 60.5ZM49.25 47.75V35.75H46.25V53H26.75V51.5H29.75V45.5C29.75 45.3011 29.829 45.1103 29.9697 44.9697C30.1103 44.829 30.3011 44.75 30.5 44.75H35C35.1989 44.75 35.3897 44.829 35.5303 44.9697C35.671 45.1103 35.75 45.3011 35.75 45.5V51.5H37.25V40.25C37.25 40.0511 37.329 39.8603 37.4697 39.7197C37.6103 39.579 37.8011 39.5 38 39.5H42.5C42.6989 39.5 42.8897 39.579 43.0303 39.7197C43.171 39.8603 43.25 40.0511 43.25 40.25V51.5H44.75V35C44.75 34.8011 44.829 34.6103 44.9697 34.4697C45.1103 34.329 45.3011 34.25 45.5 34.25H50C50.1989 34.25 50.3897 34.329 50.5303 34.4697C50.671 34.6103 50.75 34.8011 50.75 35V47.75H49.25ZM34.25 46.25H31.25V51.5H34.25V46.25ZM41.75 41H38.75V51.5H41.75V41ZM26.75 33.5V35H28.25V33.5H26.75ZM31.25 33.5H29.75V35H31.25V33.5ZM32.75 33.5V35H34.25V33.5H32.75ZM67.3407 64.1594C67.7612 64.5822 67.9981 65.1537 68 65.75C68.0003 66.0456 67.9423 66.3383 67.8293 66.6114C67.7163 66.8845 67.5506 67.1326 67.3416 67.3416C67.1326 67.5506 66.8845 67.7163 66.6114 67.8293C66.3383 67.9423 66.0456 68.0003 65.75 68C65.1543 67.9948 64.584 67.7584 64.1593 67.3407L60.5694 63.7508C58.681 64.8648 56.4512 65.2517 54.298 64.8391C52.1447 64.4265 50.2159 63.2427 48.8731 61.5096C47.5303 59.7765 46.8658 57.6131 47.0041 55.4251C47.1423 53.237 48.0739 51.1745 49.6242 49.6242C51.1745 48.0739 53.237 47.1424 55.425 47.0041C57.6131 46.8658 59.7764 47.5304 61.5095 48.8732C63.2426 50.2159 64.4264 52.1448 64.8391 54.298C65.2517 56.4513 64.8647 58.6811 63.7508 60.5694L67.3407 64.1594ZM63.5 56C63.5 54.5167 63.0601 53.0666 62.236 51.8333C61.4119 50.5999 60.2406 49.6386 58.8701 49.0709C57.4997 48.5033 55.9917 48.3548 54.5368 48.6441C53.082 48.9335 51.7456 49.6478 50.6967 50.6967C49.6478 51.7456 48.9335 53.082 48.6441 54.5369C48.3547 55.9917 48.5032 57.4997 49.0709 58.8702C49.6386 60.2406 50.5999 61.4119 51.8332 62.2361C53.0666 63.0602 54.5166 63.5 56 63.5C57.9884 63.4978 59.8948 62.7069 61.3008 61.3008C62.7068 59.8948 63.4977 57.9885 63.5 56ZM66.2799 65.2202L62.8686 61.8087C62.5451 62.1906 62.1906 62.5451 61.8087 62.8686L65.2201 66.2799C65.289 66.3525 65.3717 66.4105 65.4634 66.4506C65.555 66.4906 65.6538 66.512 65.7538 66.5133C65.8539 66.5146 65.9532 66.4958 66.0458 66.4581C66.1385 66.4204 66.2227 66.3646 66.2934 66.2938C66.3642 66.2231 66.42 66.1389 66.4577 66.0462C66.4954 65.9536 66.5141 65.8543 66.5128 65.7542C66.5115 65.6542 66.4902 65.5555 66.4502 65.4638C66.4101 65.3721 66.3521 65.2894 66.2795 65.2205L66.2799 65.2202ZM62 56C62 57.1867 61.6481 58.3468 60.9888 59.3335C60.3295 60.3201 59.3925 61.0892 58.2961 61.5433C57.1997 61.9974 55.9933 62.1163 54.8295 61.8847C53.6656 61.6532 52.5965 61.0818 51.7574 60.2427C50.9182 59.4036 50.3468 58.3345 50.1153 57.1706C49.8838 56.0067 50.0026 54.8003 50.4567 53.7039C50.9108 52.6076 51.6799 51.6705 52.6666 51.0112C53.6533 50.3519 54.8133 50 56 50C57.5908 50.0018 59.1158 50.6345 60.2407 51.7594C61.3655 52.8842 61.9982 54.4093 62 56ZM60.5 56C60.5 55.11 60.2361 54.24 59.7416 53.5C59.2471 52.7599 58.5443 52.1832 57.7221 51.8426C56.8998 51.502 55.995 51.4129 55.1221 51.5865C54.2492 51.7601 53.4474 52.1887 52.818 52.8181C52.1887 53.4474 51.7601 54.2492 51.5865 55.1221C51.4128 55.995 51.5019 56.8998 51.8425 57.7221C52.1831 58.5444 52.7599 59.2472 53.4999 59.7416C54.24 60.2361 55.11 60.5 56 60.5C57.1931 60.4987 58.3369 60.0242 59.1805 59.1806C60.0242 58.3369 60.4987 57.1931 60.5 56ZM53 56H54.5C54.5005 55.6024 54.6587 55.2211 54.9399 54.9399C55.2211 54.6587 55.6023 54.5005 56 54.5V53C55.2046 53.0009 54.4421 53.3173 53.8797 53.8797C53.3173 54.4421 53.0009 55.2047 53 56ZM62.75 27.5H64.25C64.2487 26.307 63.7742 25.1631 62.9305 24.3195C62.0869 23.4759 60.9431 23.0013 59.75 23V24.5C60.5454 24.5009 61.3079 24.8173 61.8703 25.3797C62.4327 25.9421 62.7491 26.7047 62.75 27.5Z" fill="#3B38EB"/>
</svg>
