<svg width="90" height="90" viewBox="0 0 90 90" fill="none" xmlns="http://www.w3.org/2000/svg">
<circle cx="45" cy="45" r="45" fill="#EFEFFE"/>
<path d="M64.5408 37.5161H63.6452V26.629C63.6452 24.628 62.0172 23 60.0161 23H57.1129C55.1119 23 53.4839 24.628 53.4839 26.629V28.8065H43.3226V25.1774C43.3226 23.9769 42.3456 23 41.1452 23H29.5323C28.3318 23 27.3548 23.9769 27.3548 25.1774V33.8871C27.3548 35.0876 28.3318 36.0645 29.5323 36.0645H34.6129V37.5161H26.4592C24.5518 37.5161 23 39.0679 23 40.9753C23 41.119 23.0094 41.2627 23.0269 41.4043L25.61 62.0673C25.8256 63.7947 27.3011 65.0968 29.0416 65.0968H32.9414L36.8331 67.6915C37.1373 67.8933 37.49 68 37.8536 68C38.8676 68 39.6935 67.174 39.6935 66.1594V65.0968H61.9584C63.6989 65.0968 65.1752 63.7947 65.3907 62.0673L67.9739 41.405C67.9906 41.262 68 41.119 68 40.9753C68 39.0679 66.4482 37.5161 64.5408 37.5161ZM54.9355 26.629C54.9355 25.4285 55.9124 24.4516 57.1129 24.4516H60.0161C61.2166 24.4516 62.1936 25.4285 62.1936 26.629V30.2581H54.9355V26.629ZM54.9355 31.7097H62.1936V33.1613H54.9355V31.7097ZM59.2903 44.7742V34.6129H62.1936V44.7742H59.2903ZM61.745 46.2258L58.9659 51.784C58.8127 52.091 58.3163 52.0903 58.1639 51.784L55.384 46.2258H61.745ZM54.9355 34.6129H57.8387V44.7742H54.9355V34.6129ZM43.3226 33.8871V30.2581H53.4839V37.5161H36.0645V36.0645H41.1452C42.3456 36.0645 43.3226 35.0876 43.3226 33.8871ZM29.5323 34.6129C29.1316 34.6129 28.8065 34.287 28.8065 33.8871V25.1774C28.8065 24.7775 29.1316 24.4516 29.5323 24.4516H41.1452C41.5458 24.4516 41.871 24.7775 41.871 25.1774V33.8871C41.871 34.287 41.5458 34.6129 41.1452 34.6129H29.5323ZM66.5331 41.2235L63.95 61.8865C63.8244 62.8889 62.968 63.6452 61.9584 63.6452H38.2419V66.1594C38.2419 66.4504 37.8783 66.6427 37.6373 66.4831L33.3812 63.6452H29.0416C28.0313 63.6452 27.1756 62.8889 27.05 61.8873L24.4669 41.2235C24.4567 41.1408 24.4516 41.0581 24.4516 40.9753C24.4516 39.8685 25.3516 38.9677 26.4592 38.9677H53.4839V45.6713L56.6644 52.0323H52.7581V53.4839H58.5645C59.2889 53.4839 59.9399 53.0811 60.2644 52.4336L63.6452 45.6713V38.9677H64.5408C65.6484 38.9677 66.5484 39.8685 66.5484 40.9753C66.5484 41.0581 66.5433 41.1408 66.5331 41.2235Z" fill="#3B38EB"/>
<path d="M47.6774 47.0249V42.5967C47.6774 41.3962 46.7005 40.4193 45.5 40.4193C44.4324 40.4193 43.5462 41.193 43.3618 42.2077C40.7184 44.3278 37.4182 45.5 34.0243 45.5H30.9839C28.9828 45.5 27.3549 47.1279 27.3549 49.129V52.0322C27.3549 54.0333 28.9828 55.6612 30.9839 55.6612H31.8534L33.3057 62.1935H37.5161V56.088C39.6406 56.6004 41.6409 57.5723 43.3618 58.9528C43.5462 59.9682 44.4324 60.7419 45.5 60.7419C46.7005 60.7419 47.6774 59.765 47.6774 58.5645V54.1363C49.3316 53.7988 50.5807 52.3334 50.5807 50.5806C50.5807 48.8278 49.3316 47.3624 47.6774 47.0249ZM33.1613 54.2096H30.9839C30.0389 54.2096 29.2405 53.6007 28.94 52.758H31.7097V51.3064H28.8065V49.8548H31.7097V48.4032H28.94C29.2405 47.5605 30.0389 46.9516 30.9839 46.9516H33.1613V54.2096ZM36.0645 60.7419H34.4692L33.3406 55.6612H34.025C34.7109 55.6612 35.391 55.7222 36.0653 55.8158V60.7419H36.0645ZM43.3226 57.1071C40.7605 55.3426 37.7317 54.3483 34.6129 54.2358V46.9254C37.7317 46.8122 40.7605 45.8186 43.3226 44.0541V57.1071ZM46.2258 58.5645C46.2258 58.9644 45.9007 59.2903 45.5 59.2903C45.0994 59.2903 44.7742 58.9644 44.7742 58.5645V42.5967C44.7742 42.1968 45.0994 41.8709 45.5 41.8709C45.9007 41.8709 46.2258 42.1968 46.2258 42.5967V58.5645ZM47.6774 52.6245V48.5375C48.5201 48.8379 49.1291 49.6363 49.1291 50.5813C49.1291 51.5263 48.5201 52.324 47.6774 52.6245Z" fill="#3B38EB"/>
<path d="M37.9174 27.8324L34.4597 26.1035C34.1977 25.9729 33.903 25.9032 33.6098 25.9032C32.5624 25.9032 31.7096 26.7553 31.7096 27.8034V31.2611C31.7096 32.3092 32.5624 33.1613 33.6098 33.1613C33.903 33.1613 34.1977 33.0916 34.4597 32.9609L37.9174 31.2321C38.5648 30.9084 38.9677 30.2566 38.9677 29.5322C38.9677 28.8079 38.5648 28.1561 37.9174 27.8324ZM37.2678 29.9336L33.8101 31.6625C33.5299 31.8047 33.1612 31.5783 33.1605 31.2611V27.8034C33.1612 27.5559 33.3623 27.3548 33.6098 27.3548C33.6794 27.3548 33.7484 27.3708 33.8101 27.402L37.2678 29.1309C37.421 29.2078 37.516 29.3609 37.516 29.5322C37.516 29.7035 37.421 29.8567 37.2678 29.9336Z" fill="#3B38EB"/>
<path d="M52.7581 54.9354H62.9193V56.387H52.7581V54.9354Z" fill="#3B38EB"/>
<path d="M52.7581 57.8387H62.9193V59.2904H52.7581V57.8387Z" fill="#3B38EB"/>
<path d="M58.5646 60.7419H60.0162V62.1936H58.5646V60.7419Z" fill="#3B38EB"/>
<path d="M61.4678 60.7419H62.9194V62.1936H61.4678V60.7419Z" fill="#3B38EB"/>
<path d="M52.7581 60.7419H54.2097V62.1936H52.7581V60.7419Z" fill="#3B38EB"/>
<path d="M55.6613 60.7419H57.1129V62.1936H55.6613V60.7419Z" fill="#3B38EB"/>
</svg>
