<svg width="90" height="90" viewBox="0 0 90 90" fill="none" xmlns="http://www.w3.org/2000/svg">
<circle cx="45" cy="45" r="45" fill="#EFEFFE"/>
<path d="M66.4706 58.1496L59.0684 50.7476C60.6088 48.7202 60.4555 45.8082 58.6059 43.9584L56.5722 41.9247C56.7477 40.9492 56.8396 39.945 56.8396 38.9198C56.8396 29.5902 49.2494 22 39.9198 22C30.5901 22 23 29.5902 23 38.9198C23 48.2494 30.5902 55.8396 39.9198 55.8396C40.945 55.8396 41.9493 55.7479 42.9247 55.5723L44.9584 57.6061C45.9676 58.6152 47.2933 59.1199 48.6189 59.1199C49.7229 59.1199 50.8263 58.7686 51.7475 58.0686L59.1496 65.4707C60.169 66.49 61.5064 67 62.8413 67C64.1656 67 65.4874 66.4978 66.4926 65.4926C68.5109 63.4742 68.501 60.1802 66.4706 58.1496ZM24.4062 38.9198C24.4062 30.3656 31.3656 23.4062 39.9198 23.4062C48.474 23.4062 55.4334 30.3656 55.4334 38.9198C55.4334 47.4741 48.474 54.4335 39.9198 54.4335C31.3656 54.4335 24.4062 47.4741 24.4062 38.9198ZM45.9527 56.6118L44.5396 55.1986C50.1619 53.6007 54.6006 49.162 56.1985 43.5397L57.6115 44.9527C59.0814 46.4225 59.0816 48.8142 57.6122 50.2844C57.612 50.2845 57.6118 50.2847 57.6115 50.285C57.6111 50.2853 57.6109 50.2857 57.6105 50.286L51.2849 56.6117C49.8151 58.0819 47.4229 58.0819 45.9527 56.6118ZM65.4982 64.4982C64.0282 65.9684 61.6261 65.9585 60.144 64.4762L52.7766 57.1089L58.1088 51.7766L65.4763 59.1439C66.9584 60.6261 66.9683 63.0281 65.4982 64.4982Z" fill="#3B38EB"/>
<path d="M51.6145 39.1769C51.6143 38.8491 51.3875 38.5649 51.0678 38.4921L49.4591 38.1249C49.3788 37.3967 49.2164 36.6834 48.974 35.9941L50.2631 34.9662C50.5194 34.7617 50.6004 34.4074 50.4585 34.112C50.0722 33.3083 49.5984 32.5523 49.0501 31.8649C48.502 31.1774 47.8703 30.5471 47.1727 29.9918C46.9163 29.7877 46.5527 29.7878 46.2964 29.9921L45.0053 31.0218C44.3864 30.6311 43.7279 30.3135 43.038 30.0731V28.423C43.038 28.0952 42.8115 27.8109 42.4919 27.7376C40.754 27.3394 38.9595 27.3394 37.222 27.7376C36.9025 27.8109 36.676 28.0952 36.676 28.423V30.0731C35.9861 30.3134 35.3276 30.6311 34.7086 31.0218L33.4175 29.9921C33.1613 29.7877 32.7978 29.7875 32.5412 29.9918C31.8437 30.5471 31.212 31.1773 30.6637 31.8649C30.1156 32.5523 29.6417 33.3083 29.2554 34.112C29.1134 34.4074 29.1945 34.7618 29.4508 34.9662L30.7399 35.9941C30.4975 36.6836 30.3351 37.3969 30.2548 38.1249L28.646 38.4921C28.3265 38.5649 28.0997 38.8491 28.0994 39.1769C28.0986 40.0685 28.1975 40.9551 28.3933 41.8125C28.5888 42.6698 28.8845 43.5117 29.2722 44.3147C29.4146 44.61 29.7423 44.7676 30.0618 44.6945L31.6705 44.3273C32.0587 44.946 32.5149 45.5173 33.0332 46.0342L32.3166 47.5221C32.1744 47.8174 32.2551 48.1719 32.5112 48.3764C33.2075 48.9327 33.9624 49.4083 34.755 49.79C35.5478 50.1717 36.3903 50.4655 37.2593 50.663C37.5789 50.7349 37.9064 50.5777 38.0486 50.2824L38.765 48.7948C39.4969 48.8785 40.2168 48.8785 40.9488 48.7948L41.6652 50.2824C41.7843 50.5296 42.033 50.6805 42.2984 50.6805C42.3501 50.6805 42.4024 50.6747 42.4545 50.663C43.3237 50.4653 44.1663 50.1717 44.9588 49.79C45.7513 49.4082 46.5062 48.9327 47.2025 48.3764C47.4586 48.1718 47.5393 47.8174 47.3971 47.5221L46.6805 46.0342C47.1987 45.5174 47.6548 44.946 48.0432 44.3273L49.652 44.6945C49.9716 44.7675 50.2993 44.61 50.4417 44.3146C50.8291 43.5116 51.1248 42.6698 51.3204 41.8125C51.5164 40.955 51.6153 40.0683 51.6145 39.1769ZM49.9499 41.4997C49.8184 42.0755 49.6354 42.6439 49.4043 43.1956L47.8557 42.8422C47.5505 42.7723 47.2359 42.9132 47.0841 43.1872C46.6334 44.0013 46.0519 44.7297 45.3558 45.3521C45.1222 45.5609 45.0549 45.899 45.1909 46.1813L45.8808 47.614C45.3946 47.9621 44.8812 48.2668 44.3488 48.5233C43.8165 48.7796 43.258 48.9909 42.6827 49.1541L41.9929 47.7219C41.857 47.4398 41.5509 47.2814 41.2423 47.3337C40.7785 47.4121 40.3125 47.4518 39.857 47.4518C39.4015 47.4518 38.9355 47.4121 38.4717 47.3337C38.1641 47.2814 37.8569 47.4397 37.7211 47.7219L37.0313 49.1541C36.4562 48.9909 35.8977 48.7796 35.3653 48.5233C34.8327 48.2668 34.3194 47.962 33.8332 47.614L34.5231 46.1813C34.6591 45.899 34.5918 45.5609 34.3582 45.3521C33.662 44.7297 33.0806 44.0013 32.63 43.1872C32.4784 42.9132 32.1636 42.7723 31.8584 42.8422L30.3097 43.1957C30.0785 42.6439 29.8956 42.0755 29.7642 41.4997C29.6327 40.9237 29.551 40.3322 29.5199 39.735L31.0694 39.3814C31.3751 39.3117 31.5977 39.0477 31.6149 38.7346C31.6662 37.8021 31.873 36.8936 32.2296 36.0345C32.3497 35.7449 32.2636 35.4108 32.0185 35.2154L30.7776 34.2255C31.0648 33.7007 31.395 33.2034 31.7633 32.7416C32.1317 32.2798 32.5431 31.847 32.9907 31.4503L34.2344 32.4421C34.4794 32.6375 34.8246 32.6474 35.0802 32.4653C35.8407 31.9246 36.6795 31.5201 37.5734 31.2632C37.8747 31.1766 38.0823 30.9009 38.0823 30.5875V28.9984C39.2606 28.7932 40.4536 28.7932 41.632 28.9984V30.5875C41.632 30.901 41.8395 31.1766 42.1409 31.2632C43.0349 31.5202 43.8738 31.9246 44.634 32.4653C44.8899 32.6474 45.2349 32.6376 45.48 32.4421L46.7236 31.4503C47.1711 31.847 47.5826 32.2798 47.951 32.7416C48.3193 33.2034 48.6495 33.7008 48.9368 34.2255L47.6956 35.2154C47.4505 35.4108 47.3643 35.7451 47.4846 36.0346C47.841 36.8934 48.0478 37.8018 48.0992 38.7346C48.1164 39.0477 48.339 39.3117 48.6447 39.3814L50.1942 39.735C50.163 40.3322 50.0814 40.9237 49.9499 41.4997Z" fill="#3B38EB"/>
<path d="M39.8741 33.601C36.9665 33.601 34.601 35.9665 34.601 38.8741C34.601 41.7817 36.9665 44.1473 39.8741 44.1473C42.7817 44.1473 45.1473 41.7817 45.1473 38.8741C45.1473 35.9665 42.7818 33.601 39.8741 33.601ZM39.8741 42.7411C37.7419 42.7411 36.0071 41.0063 36.0071 38.8741C36.0071 36.7419 37.7419 35.0071 39.8741 35.0071C42.0063 35.0071 43.7411 36.7419 43.7411 38.8741C43.7411 41.0063 42.0063 42.7411 39.8741 42.7411Z" fill="#3B38EB"/>
<path d="M63.7793 27.2731V53.2874C63.7793 53.6757 64.094 53.9905 64.4824 53.9905C64.8708 53.9905 65.1855 53.6758 65.1855 53.2874V27.9762H66.1983C66.6585 27.9762 67.0622 27.6818 67.2026 27.2435C67.3432 26.8053 67.1859 26.331 66.8115 26.0635L61.9008 22.5537C61.4065 22.2006 60.7449 22.2039 60.2544 22.562L55.4471 26.0697C55.0774 26.3395 54.9243 26.8133 55.0661 27.2485C55.208 27.6838 55.611 27.9762 56.0688 27.9762H57.0999V32.1948C57.0999 32.5831 57.4146 32.8979 57.803 32.8979C58.1914 32.8979 58.5061 32.5832 58.5061 32.1948V27.2731C58.5061 26.8848 58.1914 26.57 57.803 26.57H57.147L61.0833 23.6978L65.1018 26.57H64.4823C64.094 26.5701 63.7793 26.8848 63.7793 27.2731Z" fill="#3B38EB"/>
<path d="M25.4609 66.2946C25.4609 66.6829 25.7757 66.9978 26.164 66.9978C26.5524 66.9978 26.8672 66.683 26.8672 66.2946V59.2638C26.8672 58.8755 26.5524 58.5606 26.164 58.5606H25.508L29.4443 55.6885L33.4628 58.5606H32.8434C32.4551 58.5606 32.1402 58.8754 32.1402 59.2638V66.2946C32.1402 66.6829 32.455 66.9978 32.8434 66.9978C33.2317 66.9978 33.5465 66.683 33.5465 66.2946V59.9668H34.5592C35.0194 59.9668 35.4231 59.6724 35.5636 59.234C35.7041 58.7958 35.5469 58.3216 35.1725 58.054L30.2619 54.5441C29.7676 54.1911 29.1059 54.1944 28.6156 54.5525L23.8083 58.0602C23.4386 58.33 23.2855 58.8038 23.4273 59.239C23.5693 59.6743 23.9722 59.9667 24.43 59.9667H25.4611L25.4609 66.2946Z" fill="#3B38EB"/>
<path d="M45.4988 63.8339V66.2947C45.4988 66.683 45.8136 66.9978 46.202 66.9978C46.5904 66.9978 46.9051 66.6831 46.9051 66.2947V64.537H47.9178C48.378 64.537 48.7817 64.2425 48.9222 63.8042C49.0627 63.366 48.9055 62.8918 48.5311 62.6242L43.6205 59.1143C43.1262 58.7613 42.4644 58.7646 41.9741 59.1227L37.1668 62.6304C36.7971 62.9002 36.644 63.374 36.7858 63.8092C36.9278 64.2445 37.3308 64.5369 37.7885 64.5369H38.8196V66.2946C38.8196 66.6829 39.1344 66.9977 39.5227 66.9977C39.9111 66.9977 40.2259 66.683 40.2259 66.2946V63.8338C40.2259 63.4455 39.9111 63.1306 39.5227 63.1306H38.8667L42.803 60.2585L46.8215 63.1306H46.2021C45.8137 63.1308 45.4988 63.4456 45.4988 63.8339Z" fill="#3B38EB"/>
</svg>
